ISO-10303-21;
HEADER;

FILE_DESCRIPTION((''), '2;1');

FILE_NAME(
    'output_file',
    '2009-06-07T17:44:47-07:00',
    (''),
    (''),
    'SolveSpace',
    '',
    ''
);

FILE_SCHEMA (('CONFIG_CONTROL_DESIGN'));
ENDSEC;

DATA;

/**********************************************************
 * This defines the units and tolerances for the file. It
 * is always the same, independent of the actual data.
 **********************************************************/
#158=(
LENGTH_UNIT()
NAMED_UNIT(*)
SI_UNIT(.MILLI.,.METRE.)
);
#161=(
NAMED_UNIT(*)
PLANE_ANGLE_UNIT()
SI_UNIT($,.RADIAN.)
);
#166=(
NAMED_UNIT(*)
SI_UNIT($,.STERADIAN.)
SOLID_ANGLE_UNIT()
);
#167=UNCERTAINTY_MEASURE_WITH_UNIT(LENGTH_MEASURE(0.000002),#158,
'DISTANCE_ACCURACY_VALUE',
'string');
#168=(
GEOMETRIC_REPRESENTATION_CONTEXT(3)
GLOBAL_UNCERTAINTY_ASSIGNED_CONTEXT((#167))
GLOBAL_UNIT_ASSIGNED_CONTEXT((#166,#161,#158))
REPRESENTATION_CONTEXT('ID1','3D')
);
#169=SHAPE_REPRESENTATION('',(#170),#168);
#170=AXIS2_PLACEMENT_3D('',#173,#171,#172);
#171=DIRECTION('',(0.,0.,1.));
#172=DIRECTION('',(1.,0.,0.));
#173=CARTESIAN_POINT('',(0.,0.,0.));

#175 = SHAPE_DEFINITION_REPRESENTATION(#176, #169);
#176 = PRODUCT_DEFINITION_SHAPE('Version', 'Test Part', #177);
#177 = PRODUCT_DEFINITION('Version', 'Test Part', #182, #178);
#178 = DESIGN_CONTEXT('3D Mechanical Parts', #181, 'design');
#179 = PRODUCT('1', 'Product', 'Test Part', (#180));
#180 = MECHANICAL_CONTEXT('3D Mechanical Parts', #181, 'mechanical');
#181 = APPLICATION_CONTEXT(
'configuration controlled 3d designs of mechanical parts and assemblies');
#182 = PRODUCT_DEFINITION_FORMATION_WITH_SPECIFIED_SOURCE('Version',
'Test Part', #179, .MADE.);

#201=CARTESIAN_POINT('',(28.75840,-1.40000,-28.75840));
#202=CARTESIAN_POINT('',(-28.75840,-1.40000,-28.75840));
#203=CARTESIAN_POINT('',(28.75840,-1.40000,28.75840));
#204=CARTESIAN_POINT('',(-28.75840,-1.40000,28.75840));
#200=(
BOUNDED_SURFACE()
B_SPLINE_SURFACE(1,1,((#201,#202),(#203,#204)),.UNSPECIFIED.,.F.,.F.,.F.)
B_SPLINE_SURFACE_WITH_KNOTS((2,2),(2,2),(0.000,1.000),(0.000,1.000),.UNSPECIFIED.)
GEOMETRIC_REPRESENTATION_ITEM()
RATIONAL_B_SPLINE_SURFACE(((1.0000000000,1.0000000000),(1.0000000000,1.0000000000)))
REPRESENTATION_ITEM('')
SURFACE()
);

#205=CARTESIAN_POINT('',(0.00000,-1.40000,27.48038));
#206=VERTEX_POINT('',#205);
#209=CARTESIAN_POINT('',(27.48038,-1.40000,27.48038));
#210=CARTESIAN_POINT('',(27.48038,-1.40000,-0.00000));
#207=(
BOUNDED_CURVE()
B_SPLINE_CURVE(2,(#205,#209,#210),.UNSPECIFIED.,.F.,.F.)
B_SPLINE_CURVE_WITH_KNOTS((3,3),(0.000,1.000),.UNSPECIFIED.)
CURVE()
GEOMETRIC_REPRESENTATION_ITEM()
RATIONAL_B_SPLINE_CURVE((1.0000000000,0.7071067812,1.0000000000))
REPRESENTATION_ITEM('')
);

#212=VERTEX_POINT('',#210);
#213=EDGE_CURVE('',#206,#212,#207,.T.);
#214=ORIENTED_EDGE('',*,*,#213,.T.);
#217=CARTESIAN_POINT('',(27.48038,-1.40000,-27.48038));
#218=CARTESIAN_POINT('',(-0.00000,-1.40000,-27.48038));
#215=(
BOUNDED_CURVE()
B_SPLINE_CURVE(2,(#210,#217,#218),.UNSPECIFIED.,.F.,.F.)
B_SPLINE_CURVE_WITH_KNOTS((3,3),(0.000,1.000),.UNSPECIFIED.)
CURVE()
GEOMETRIC_REPRESENTATION_ITEM()
RATIONAL_B_SPLINE_CURVE((1.0000000000,0.7071067812,1.0000000000))
REPRESENTATION_ITEM('')
);

#220=VERTEX_POINT('',#218);
#221=EDGE_CURVE('',#212,#220,#215,.T.);
#222=ORIENTED_EDGE('',*,*,#221,.T.);
#225=CARTESIAN_POINT('',(-27.48038,-1.40000,-27.48038));
#226=CARTESIAN_POINT('',(-27.48038,-1.40000,0.00000));
#223=(
BOUNDED_CURVE()
B_SPLINE_CURVE(2,(#218,#225,#226),.UNSPECIFIED.,.F.,.F.)
B_SPLINE_CURVE_WITH_KNOTS((3,3),(0.000,1.000),.UNSPECIFIED.)
CURVE()
GEOMETRIC_REPRESENTATION_ITEM()
RATIONAL_B_SPLINE_CURVE((1.0000000000,0.7071067812,1.0000000000))
REPRESENTATION_ITEM('')
);

#228=VERTEX_POINT('',#226);
#229=EDGE_CURVE('',#220,#228,#223,.T.);
#230=ORIENTED_EDGE('',*,*,#229,.T.);
#233=CARTESIAN_POINT('',(-27.48038,-1.40000,27.48038));
#231=(
BOUNDED_CURVE()
B_SPLINE_CURVE(2,(#226,#233,#205),.UNSPECIFIED.,.F.,.F.)
B_SPLINE_CURVE_WITH_KNOTS((3,3),(0.000,1.000),.UNSPECIFIED.)
CURVE()
GEOMETRIC_REPRESENTATION_ITEM()
RATIONAL_B_SPLINE_CURVE((1.0000000000,0.7071067812,1.0000000000))
REPRESENTATION_ITEM('')
);

#235=EDGE_CURVE('',#228,#206,#231,.T.);
#236=ORIENTED_EDGE('',*,*,#235,.T.);
#237=EDGE_LOOP('',(#214,#222,#230,#236));
#238=FACE_OUTER_BOUND('',#237,.T.);
#239=CARTESIAN_POINT('',(-20.05000,-1.40000,0.00000));
#240=VERTEX_POINT('',#239);
#243=CARTESIAN_POINT('',(-20.05000,-1.40000,2.05000));
#244=CARTESIAN_POINT('',(-22.10000,-1.40000,2.05000));
#241=(
BOUNDED_CURVE()
B_SPLINE_CURVE(2,(#239,#243,#244),.UNSPECIFIED.,.F.,.F.)
B_SPLINE_CURVE_WITH_KNOTS((3,3),(0.000,1.000),.UNSPECIFIED.)
CURVE()
GEOMETRIC_REPRESENTATION_ITEM()
RATIONAL_B_SPLINE_CURVE((1.0000000000,0.7071067812,1.0000000000))
REPRESENTATION_ITEM('')
);

#246=VERTEX_POINT('',#244);
#247=EDGE_CURVE('',#240,#246,#241,.T.);
#248=ORIENTED_EDGE('',*,*,#247,.T.);
#251=CARTESIAN_POINT('',(-24.15000,-1.40000,2.05000));
#252=CARTESIAN_POINT('',(-24.15000,-1.40000,-0.00000));
#249=(
BOUNDED_CURVE()
B_SPLINE_CURVE(2,(#244,#251,#252),.UNSPECIFIED.,.F.,.F.)
B_SPLINE_CURVE_WITH_KNOTS((3,3),(0.000,1.000),.UNSPECIFIED.)
CURVE()
GEOMETRIC_REPRESENTATION_ITEM()
RATIONAL_B_SPLINE_CURVE((1.0000000000,0.7071067812,1.0000000000))
REPRESENTATION_ITEM('')
);

#254=VERTEX_POINT('',#252);
#255=EDGE_CURVE('',#246,#254,#249,.T.);
#256=ORIENTED_EDGE('',*,*,#255,.T.);
#259=CARTESIAN_POINT('',(-24.15000,-1.40000,-2.05000));
#260=CARTESIAN_POINT('',(-22.10000,-1.40000,-2.05000));
#257=(
BOUNDED_CURVE()
B_SPLINE_CURVE(2,(#252,#259,#260),.UNSPECIFIED.,.F.,.F.)
B_SPLINE_CURVE_WITH_KNOTS((3,3),(0.000,1.000),.UNSPECIFIED.)
CURVE()
GEOMETRIC_REPRESENTATION_ITEM()
RATIONAL_B_SPLINE_CURVE((1.0000000000,0.7071067812,1.0000000000))
REPRESENTATION_ITEM('')
);

#262=VERTEX_POINT('',#260);
#263=EDGE_CURVE('',#254,#262,#257,.T.);
#264=ORIENTED_EDGE('',*,*,#263,.T.);
#267=CARTESIAN_POINT('',(-20.05000,-1.40000,-2.05000));
#265=(
BOUNDED_CURVE()
B_SPLINE_CURVE(2,(#260,#267,#239),.UNSPECIFIED.,.F.,.F.)
B_SPLINE_CURVE_WITH_KNOTS((3,3),(0.000,1.000),.UNSPECIFIED.)
CURVE()
GEOMETRIC_REPRESENTATION_ITEM()
RATIONAL_B_SPLINE_CURVE((1.0000000000,0.7071067812,1.0000000000))
REPRESENTATION_ITEM('')
);

#269=EDGE_CURVE('',#262,#240,#265,.T.);
#270=ORIENTED_EDGE('',*,*,#269,.T.);
#271=EDGE_LOOP('',(#248,#256,#264,#270));
#272=FACE_BOUND('',#271,.T.);
#273=CARTESIAN_POINT('',(22.10000,-1.40000,-2.05000));
#274=VERTEX_POINT('',#273);
#277=CARTESIAN_POINT('',(24.15000,-1.40000,-2.05000));
#278=CARTESIAN_POINT('',(24.15000,-1.40000,0.00000));
#275=(
BOUNDED_CURVE()
B_SPLINE_CURVE(2,(#273,#277,#278),.UNSPECIFIED.,.F.,.F.)
B_SPLINE_CURVE_WITH_KNOTS((3,3),(0.000,1.000),.UNSPECIFIED.)
CURVE()
GEOMETRIC_REPRESENTATION_ITEM()
RATIONAL_B_SPLINE_CURVE((1.0000000000,0.7071067812,1.0000000000))
REPRESENTATION_ITEM('')
);

#280=VERTEX_POINT('',#278);
#281=EDGE_CURVE('',#274,#280,#275,.T.);
#282=ORIENTED_EDGE('',*,*,#281,.T.);
#285=CARTESIAN_POINT('',(24.15000,-1.40000,2.05000));
#286=CARTESIAN_POINT('',(22.10000,-1.40000,2.05000));
#283=(
BOUNDED_CURVE()
B_SPLINE_CURVE(2,(#278,#285,#286),.UNSPECIFIED.,.F.,.F.)
B_SPLINE_CURVE_WITH_KNOTS((3,3),(0.000,1.000),.UNSPECIFIED.)
CURVE()
GEOMETRIC_REPRESENTATION_ITEM()
RATIONAL_B_SPLINE_CURVE((1.0000000000,0.7071067812,1.0000000000))
REPRESENTATION_ITEM('')
);

#288=VERTEX_POINT('',#286);
#289=EDGE_CURVE('',#280,#288,#283,.T.);
#290=ORIENTED_EDGE('',*,*,#289,.T.);
#293=CARTESIAN_POINT('',(20.05000,-1.40000,2.05000));
#294=CARTESIAN_POINT('',(20.05000,-1.40000,0.00000));
#291=(
BOUNDED_CURVE()
B_SPLINE_CURVE(2,(#286,#293,#294),.UNSPECIFIED.,.F.,.F.)
B_SPLINE_CURVE_WITH_KNOTS((3,3),(0.000,1.000),.UNSPECIFIED.)
CURVE()
GEOMETRIC_REPRESENTATION_ITEM()
RATIONAL_B_SPLINE_CURVE((1.0000000000,0.7071067812,1.0000000000))
REPRESENTATION_ITEM('')
);

#296=VERTEX_POINT('',#294);
#297=EDGE_CURVE('',#288,#296,#291,.T.);
#298=ORIENTED_EDGE('',*,*,#297,.T.);
#301=CARTESIAN_POINT('',(20.05000,-1.40000,-2.05000));
#299=(
BOUNDED_CURVE()
B_SPLINE_CURVE(2,(#294,#301,#273),.UNSPECIFIED.,.F.,.F.)
B_SPLINE_CURVE_WITH_KNOTS((3,3),(0.000,1.000),.UNSPECIFIED.)
CURVE()
GEOMETRIC_REPRESENTATION_ITEM()
RATIONAL_B_SPLINE_CURVE((1.0000000000,0.7071067812,1.0000000000))
REPRESENTATION_ITEM('')
);

#303=EDGE_CURVE('',#296,#274,#299,.T.);
#304=ORIENTED_EDGE('',*,*,#303,.T.);
#305=EDGE_LOOP('',(#282,#290,#298,#304));
#306=FACE_BOUND('',#305,.T.);
#307=ADVANCED_FACE('',(#238,#272,#306),#200,.T.);
#308=COLOUR_RGB('',0.39,0.39,0.39);
#309=FILL_AREA_STYLE_COLOUR('',#308);
#310=FILL_AREA_STYLE('',(#309));
#311=SURFACE_STYLE_FILL_AREA(#310);
#312=SURFACE_STYLE_TRANSPARENT(0.00);
#313=SURFACE_STYLE_RENDERING_WITH_PROPERTIES(.NORMAL_SHADING.,#308,(#312));
#314=SURFACE_SIDE_STYLE('',(#311, #313));
#315=SURFACE_STYLE_USAGE(.BOTH.,#314);
#316=PRESENTATION_STYLE_ASSIGNMENT((#315));
#317=STYLED_ITEM('',(#316),#307);

#322=CARTESIAN_POINT('',(-28.00000,-1.10000,0.00000));
#323=CARTESIAN_POINT('',(-28.00000,-1.10000,-28.00000));
#324=CARTESIAN_POINT('',(-0.00000,-1.10000,-28.00000));
#318=(
BOUNDED_SURFACE()
B_SPLINE_SURFACE(1,2,((#226,#225,#218),(#322,#323,#324)),.UNSPECIFIED.,.F.,.F.,.F.)
B_SPLINE_SURFACE_WITH_KNOTS((2,2),(3,3),(0.000,1.000),(0.000,1.000),.UNSPECIFIED.)
GEOMETRIC_REPRESENTATION_ITEM()
RATIONAL_B_SPLINE_SURFACE(((1.0000000000,0.7071067812,1.0000000000),(1.0000000000,0.7071067812,1.0000000000)))
REPRESENTATION_ITEM('')
SURFACE()
);

#326=VERTEX_POINT('',#322);
#327=(
BOUNDED_CURVE()
B_SPLINE_CURVE(1,(#322,#226),.UNSPECIFIED.,.F.,.F.)
B_SPLINE_CURVE_WITH_KNOTS((2,2),(0.000,1.000),.UNSPECIFIED.)
CURVE()
GEOMETRIC_REPRESENTATION_ITEM()
RATIONAL_B_SPLINE_CURVE((1.0000000000,1.0000000000))
REPRESENTATION_ITEM('')
);

#332=EDGE_CURVE('',#326,#228,#327,.T.);
#333=ORIENTED_EDGE('',*,*,#332,.T.);
#341=ORIENTED_EDGE('',*,*,#229,.F.);
#342=(
BOUNDED_CURVE()
B_SPLINE_CURVE(1,(#218,#324),.UNSPECIFIED.,.F.,.F.)
B_SPLINE_CURVE_WITH_KNOTS((2,2),(0.000,1.000),.UNSPECIFIED.)
CURVE()
GEOMETRIC_REPRESENTATION_ITEM()
RATIONAL_B_SPLINE_CURVE((1.0000000000,1.0000000000))
REPRESENTATION_ITEM('')
);

#346=VERTEX_POINT('',#324);
#347=EDGE_CURVE('',#220,#346,#342,.T.);
#348=ORIENTED_EDGE('',*,*,#347,.T.);
#349=(
BOUNDED_CURVE()
B_SPLINE_CURVE(2,(#324,#323,#322),.UNSPECIFIED.,.F.,.F.)
B_SPLINE_CURVE_WITH_KNOTS((3,3),(0.000,1.000),.UNSPECIFIED.)
CURVE()
GEOMETRIC_REPRESENTATION_ITEM()
RATIONAL_B_SPLINE_CURVE((1.0000000000,0.7071067812,1.0000000000))
REPRESENTATION_ITEM('')
);

#353=EDGE_CURVE('',#346,#326,#349,.T.);
#354=ORIENTED_EDGE('',*,*,#353,.T.);
#355=EDGE_LOOP('',(#333,#341,#348,#354));
#356=FACE_OUTER_BOUND('',#355,.T.);
#357=ADVANCED_FACE('',(#356),#318,.T.);
#358=COLOUR_RGB('',0.39,0.39,0.39);
#359=FILL_AREA_STYLE_COLOUR('',#358);
#360=FILL_AREA_STYLE('',(#359));
#361=SURFACE_STYLE_FILL_AREA(#360);
#362=SURFACE_STYLE_TRANSPARENT(0.00);
#363=SURFACE_STYLE_RENDERING_WITH_PROPERTIES(.NORMAL_SHADING.,#358,(#362));
#364=SURFACE_SIDE_STYLE('',(#361, #363));
#365=SURFACE_STYLE_USAGE(.BOTH.,#364);
#366=PRESENTATION_STYLE_ASSIGNMENT((#365));
#367=STYLED_ITEM('',(#366),#357);

#373=CARTESIAN_POINT('',(28.00000,-1.10000,-28.00000));
#374=CARTESIAN_POINT('',(28.00000,-1.10000,-0.00000));
#368=(
BOUNDED_SURFACE()
B_SPLINE_SURFACE(1,2,((#218,#217,#210),(#324,#373,#374)),.UNSPECIFIED.,.F.,.F.,.F.)
B_SPLINE_SURFACE_WITH_KNOTS((2,2),(3,3),(0.000,1.000),(0.000,1.000),.UNSPECIFIED.)
GEOMETRIC_REPRESENTATION_ITEM()
RATIONAL_B_SPLINE_SURFACE(((1.0000000000,0.7071067812,1.0000000000),(1.0000000000,0.7071067812,1.0000000000)))
REPRESENTATION_ITEM('')
SURFACE()
);

#383=ORIENTED_EDGE('',*,*,#347,.F.);
#391=ORIENTED_EDGE('',*,*,#221,.F.);
#392=(
BOUNDED_CURVE()
B_SPLINE_CURVE(1,(#210,#374),.UNSPECIFIED.,.F.,.F.)
B_SPLINE_CURVE_WITH_KNOTS((2,2),(0.000,1.000),.UNSPECIFIED.)
CURVE()
GEOMETRIC_REPRESENTATION_ITEM()
RATIONAL_B_SPLINE_CURVE((1.0000000000,1.0000000000))
REPRESENTATION_ITEM('')
);

#396=VERTEX_POINT('',#374);
#397=EDGE_CURVE('',#212,#396,#392,.T.);
#398=ORIENTED_EDGE('',*,*,#397,.T.);
#399=(
BOUNDED_CURVE()
B_SPLINE_CURVE(2,(#374,#373,#324),.UNSPECIFIED.,.F.,.F.)
B_SPLINE_CURVE_WITH_KNOTS((3,3),(0.000,1.000),.UNSPECIFIED.)
CURVE()
GEOMETRIC_REPRESENTATION_ITEM()
RATIONAL_B_SPLINE_CURVE((1.0000000000,0.7071067812,1.0000000000))
REPRESENTATION_ITEM('')
);

#403=EDGE_CURVE('',#396,#346,#399,.T.);
#404=ORIENTED_EDGE('',*,*,#403,.T.);
#405=EDGE_LOOP('',(#383,#391,#398,#404));
#406=FACE_OUTER_BOUND('',#405,.T.);
#407=ADVANCED_FACE('',(#406),#368,.T.);
#408=COLOUR_RGB('',0.39,0.39,0.39);
#409=FILL_AREA_STYLE_COLOUR('',#408);
#410=FILL_AREA_STYLE('',(#409));
#411=SURFACE_STYLE_FILL_AREA(#410);
#412=SURFACE_STYLE_TRANSPARENT(0.00);
#413=SURFACE_STYLE_RENDERING_WITH_PROPERTIES(.NORMAL_SHADING.,#408,(#412));
#414=SURFACE_SIDE_STYLE('',(#411, #413));
#415=SURFACE_STYLE_USAGE(.BOTH.,#414);
#416=PRESENTATION_STYLE_ASSIGNMENT((#415));
#417=STYLED_ITEM('',(#416),#407);

#423=CARTESIAN_POINT('',(28.00000,-1.10000,28.00000));
#424=CARTESIAN_POINT('',(0.00000,-1.10000,28.00000));
#418=(
BOUNDED_SURFACE()
B_SPLINE_SURFACE(1,2,((#210,#209,#205),(#374,#423,#424)),.UNSPECIFIED.,.F.,.F.,.F.)
B_SPLINE_SURFACE_WITH_KNOTS((2,2),(3,3),(0.000,1.000),(0.000,1.000),.UNSPECIFIED.)
GEOMETRIC_REPRESENTATION_ITEM()
RATIONAL_B_SPLINE_SURFACE(((1.0000000000,0.7071067812,1.0000000000),(1.0000000000,0.7071067812,1.0000000000)))
REPRESENTATION_ITEM('')
SURFACE()
);

#433=ORIENTED_EDGE('',*,*,#397,.F.);
#441=ORIENTED_EDGE('',*,*,#213,.F.);
#442=(
BOUNDED_CURVE()
B_SPLINE_CURVE(1,(#205,#424),.UNSPECIFIED.,.F.,.F.)
B_SPLINE_CURVE_WITH_KNOTS((2,2),(0.000,1.000),.UNSPECIFIED.)
CURVE()
GEOMETRIC_REPRESENTATION_ITEM()
RATIONAL_B_SPLINE_CURVE((1.0000000000,1.0000000000))
REPRESENTATION_ITEM('')
);

#446=VERTEX_POINT('',#424);
#447=EDGE_CURVE('',#206,#446,#442,.T.);
#448=ORIENTED_EDGE('',*,*,#447,.T.);
#449=(
BOUNDED_CURVE()
B_SPLINE_CURVE(2,(#424,#423,#374),.UNSPECIFIED.,.F.,.F.)
B_SPLINE_CURVE_WITH_KNOTS((3,3),(0.000,1.000),.UNSPECIFIED.)
CURVE()
GEOMETRIC_REPRESENTATION_ITEM()
RATIONAL_B_SPLINE_CURVE((1.0000000000,0.7071067812,1.0000000000))
REPRESENTATION_ITEM('')
);

#453=EDGE_CURVE('',#446,#396,#449,.T.);
#454=ORIENTED_EDGE('',*,*,#453,.T.);
#455=EDGE_LOOP('',(#433,#441,#448,#454));
#456=FACE_OUTER_BOUND('',#455,.T.);
#457=ADVANCED_FACE('',(#456),#418,.T.);
#458=COLOUR_RGB('',0.39,0.39,0.39);
#459=FILL_AREA_STYLE_COLOUR('',#458);
#460=FILL_AREA_STYLE('',(#459));
#461=SURFACE_STYLE_FILL_AREA(#460);
#462=SURFACE_STYLE_TRANSPARENT(0.00);
#463=SURFACE_STYLE_RENDERING_WITH_PROPERTIES(.NORMAL_SHADING.,#458,(#462));
#464=SURFACE_SIDE_STYLE('',(#461, #463));
#465=SURFACE_STYLE_USAGE(.BOTH.,#464);
#466=PRESENTATION_STYLE_ASSIGNMENT((#465));
#467=STYLED_ITEM('',(#466),#457);

#473=CARTESIAN_POINT('',(-28.00000,-1.10000,28.00000));
#468=(
BOUNDED_SURFACE()
B_SPLINE_SURFACE(1,2,((#205,#233,#226),(#424,#473,#322)),.UNSPECIFIED.,.F.,.F.,.F.)
B_SPLINE_SURFACE_WITH_KNOTS((2,2),(3,3),(0.000,1.000),(0.000,1.000),.UNSPECIFIED.)
GEOMETRIC_REPRESENTATION_ITEM()
RATIONAL_B_SPLINE_SURFACE(((1.0000000000,0.7071067812,1.0000000000),(1.0000000000,0.7071067812,1.0000000000)))
REPRESENTATION_ITEM('')
SURFACE()
);

#483=ORIENTED_EDGE('',*,*,#447,.F.);
#491=ORIENTED_EDGE('',*,*,#235,.F.);
#498=ORIENTED_EDGE('',*,*,#332,.F.);
#499=(
BOUNDED_CURVE()
B_SPLINE_CURVE(2,(#322,#473,#424),.UNSPECIFIED.,.F.,.F.)
B_SPLINE_CURVE_WITH_KNOTS((3,3),(0.000,1.000),.UNSPECIFIED.)
CURVE()
GEOMETRIC_REPRESENTATION_ITEM()
RATIONAL_B_SPLINE_CURVE((1.0000000000,0.7071067812,1.0000000000))
REPRESENTATION_ITEM('')
);

#503=EDGE_CURVE('',#326,#446,#499,.T.);
#504=ORIENTED_EDGE('',*,*,#503,.T.);
#505=EDGE_LOOP('',(#483,#491,#498,#504));
#506=FACE_OUTER_BOUND('',#505,.T.);
#507=ADVANCED_FACE('',(#506),#468,.T.);
#508=COLOUR_RGB('',0.39,0.39,0.39);
#509=FILL_AREA_STYLE_COLOUR('',#508);
#510=FILL_AREA_STYLE('',(#509));
#511=SURFACE_STYLE_FILL_AREA(#510);
#512=SURFACE_STYLE_TRANSPARENT(0.00);
#513=SURFACE_STYLE_RENDERING_WITH_PROPERTIES(.NORMAL_SHADING.,#508,(#512));
#514=SURFACE_SIDE_STYLE('',(#511, #513));
#515=SURFACE_STYLE_USAGE(.BOTH.,#514);
#516=PRESENTATION_STYLE_ASSIGNMENT((#515));
#517=STYLED_ITEM('',(#516),#507);

#519=CARTESIAN_POINT('',(-28.00000,-2.00000,0.00000));
#521=CARTESIAN_POINT('',(-28.00000,-2.00000,-28.00000));
#523=CARTESIAN_POINT('',(-0.00000,-2.00000,-28.00000));
#518=(
BOUNDED_SURFACE()
B_SPLINE_SURFACE(2,1,((#519,#322),(#521,#323),(#523,#324)),.UNSPECIFIED.,.F.,.F.,.F.)
B_SPLINE_SURFACE_WITH_KNOTS((3,3),(2,2),(0.000,1.000),(0.000,1.000),.UNSPECIFIED.)
GEOMETRIC_REPRESENTATION_ITEM()
RATIONAL_B_SPLINE_SURFACE(((1.0000000000,1.0000000000),(0.7071067812,0.7071067812),(1.0000000000,1.0000000000)))
REPRESENTATION_ITEM('')
SURFACE()
);

#526=VERTEX_POINT('',#519);
#527=(
BOUNDED_CURVE()
B_SPLINE_CURVE(1,(#519,#322),.UNSPECIFIED.,.F.,.F.)
B_SPLINE_CURVE_WITH_KNOTS((2,2),(0.000,1.000),.UNSPECIFIED.)
CURVE()
GEOMETRIC_REPRESENTATION_ITEM()
RATIONAL_B_SPLINE_CURVE((1.0000000000,1.0000000000))
REPRESENTATION_ITEM('')
);

#532=EDGE_CURVE('',#526,#326,#527,.T.);
#533=ORIENTED_EDGE('',*,*,#532,.T.);
#541=ORIENTED_EDGE('',*,*,#353,.F.);
#542=(
BOUNDED_CURVE()
B_SPLINE_CURVE(1,(#324,#523),.UNSPECIFIED.,.F.,.F.)
B_SPLINE_CURVE_WITH_KNOTS((2,2),(0.000,1.000),.UNSPECIFIED.)
CURVE()
GEOMETRIC_REPRESENTATION_ITEM()
RATIONAL_B_SPLINE_CURVE((1.0000000000,1.0000000000))
REPRESENTATION_ITEM('')
);

#546=VERTEX_POINT('',#523);
#547=EDGE_CURVE('',#346,#546,#542,.T.);
#548=ORIENTED_EDGE('',*,*,#547,.T.);
#549=(
BOUNDED_CURVE()
B_SPLINE_CURVE(2,(#523,#521,#519),.UNSPECIFIED.,.F.,.F.)
B_SPLINE_CURVE_WITH_KNOTS((3,3),(0.000,1.000),.UNSPECIFIED.)
CURVE()
GEOMETRIC_REPRESENTATION_ITEM()
RATIONAL_B_SPLINE_CURVE((1.0000000000,0.7071067812,1.0000000000))
REPRESENTATION_ITEM('')
);

#553=EDGE_CURVE('',#546,#526,#549,.T.);
#554=ORIENTED_EDGE('',*,*,#553,.T.);
#555=EDGE_LOOP('',(#533,#541,#548,#554));
#556=FACE_OUTER_BOUND('',#555,.T.);
#557=ADVANCED_FACE('',(#556),#518,.T.);
#558=COLOUR_RGB('',0.39,0.39,0.39);
#559=FILL_AREA_STYLE_COLOUR('',#558);
#560=FILL_AREA_STYLE('',(#559));
#561=SURFACE_STYLE_FILL_AREA(#560);
#562=SURFACE_STYLE_TRANSPARENT(0.00);
#563=SURFACE_STYLE_RENDERING_WITH_PROPERTIES(.NORMAL_SHADING.,#558,(#562));
#564=SURFACE_SIDE_STYLE('',(#561, #563));
#565=SURFACE_STYLE_USAGE(.BOTH.,#564);
#566=PRESENTATION_STYLE_ASSIGNMENT((#565));
#567=STYLED_ITEM('',(#566),#557);

#571=CARTESIAN_POINT('',(28.00000,-2.00000,-28.00000));
#573=CARTESIAN_POINT('',(28.00000,-2.00000,-0.00000));
#568=(
BOUNDED_SURFACE()
B_SPLINE_SURFACE(2,1,((#523,#324),(#571,#373),(#573,#374)),.UNSPECIFIED.,.F.,.F.,.F.)
B_SPLINE_SURFACE_WITH_KNOTS((3,3),(2,2),(0.000,1.000),(0.000,1.000),.UNSPECIFIED.)
GEOMETRIC_REPRESENTATION_ITEM()
RATIONAL_B_SPLINE_SURFACE(((1.0000000000,1.0000000000),(0.7071067812,0.7071067812),(1.0000000000,1.0000000000)))
REPRESENTATION_ITEM('')
SURFACE()
);

#583=ORIENTED_EDGE('',*,*,#547,.F.);
#591=ORIENTED_EDGE('',*,*,#403,.F.);
#592=(
BOUNDED_CURVE()
B_SPLINE_CURVE(1,(#374,#573),.UNSPECIFIED.,.F.,.F.)
B_SPLINE_CURVE_WITH_KNOTS((2,2),(0.000,1.000),.UNSPECIFIED.)
CURVE()
GEOMETRIC_REPRESENTATION_ITEM()
RATIONAL_B_SPLINE_CURVE((1.0000000000,1.0000000000))
REPRESENTATION_ITEM('')
);

#596=VERTEX_POINT('',#573);
#597=EDGE_CURVE('',#396,#596,#592,.T.);
#598=ORIENTED_EDGE('',*,*,#597,.T.);
#599=(
BOUNDED_CURVE()
B_SPLINE_CURVE(2,(#573,#571,#523),.UNSPECIFIED.,.F.,.F.)
B_SPLINE_CURVE_WITH_KNOTS((3,3),(0.000,1.000),.UNSPECIFIED.)
CURVE()
GEOMETRIC_REPRESENTATION_ITEM()
RATIONAL_B_SPLINE_CURVE((1.0000000000,0.7071067812,1.0000000000))
REPRESENTATION_ITEM('')
);

#603=EDGE_CURVE('',#596,#546,#599,.T.);
#604=ORIENTED_EDGE('',*,*,#603,.T.);
#605=EDGE_LOOP('',(#583,#591,#598,#604));
#606=FACE_OUTER_BOUND('',#605,.T.);
#607=ADVANCED_FACE('',(#606),#568,.T.);
#608=COLOUR_RGB('',0.39,0.39,0.39);
#609=FILL_AREA_STYLE_COLOUR('',#608);
#610=FILL_AREA_STYLE('',(#609));
#611=SURFACE_STYLE_FILL_AREA(#610);
#612=SURFACE_STYLE_TRANSPARENT(0.00);
#613=SURFACE_STYLE_RENDERING_WITH_PROPERTIES(.NORMAL_SHADING.,#608,(#612));
#614=SURFACE_SIDE_STYLE('',(#611, #613));
#615=SURFACE_STYLE_USAGE(.BOTH.,#614);
#616=PRESENTATION_STYLE_ASSIGNMENT((#615));
#617=STYLED_ITEM('',(#616),#607);

#621=CARTESIAN_POINT('',(28.00000,-2.00000,28.00000));
#623=CARTESIAN_POINT('',(0.00000,-2.00000,28.00000));
#618=(
BOUNDED_SURFACE()
B_SPLINE_SURFACE(2,1,((#573,#374),(#621,#423),(#623,#424)),.UNSPECIFIED.,.F.,.F.,.F.)
B_SPLINE_SURFACE_WITH_KNOTS((3,3),(2,2),(0.000,1.000),(0.000,1.000),.UNSPECIFIED.)
GEOMETRIC_REPRESENTATION_ITEM()
RATIONAL_B_SPLINE_SURFACE(((1.0000000000,1.0000000000),(0.7071067812,0.7071067812),(1.0000000000,1.0000000000)))
REPRESENTATION_ITEM('')
SURFACE()
);

#633=ORIENTED_EDGE('',*,*,#597,.F.);
#641=ORIENTED_EDGE('',*,*,#453,.F.);
#642=(
BOUNDED_CURVE()
B_SPLINE_CURVE(1,(#424,#623),.UNSPECIFIED.,.F.,.F.)
B_SPLINE_CURVE_WITH_KNOTS((2,2),(0.000,1.000),.UNSPECIFIED.)
CURVE()
GEOMETRIC_REPRESENTATION_ITEM()
RATIONAL_B_SPLINE_CURVE((1.0000000000,1.0000000000))
REPRESENTATION_ITEM('')
);

#646=VERTEX_POINT('',#623);
#647=EDGE_CURVE('',#446,#646,#642,.T.);
#648=ORIENTED_EDGE('',*,*,#647,.T.);
#649=(
BOUNDED_CURVE()
B_SPLINE_CURVE(2,(#623,#621,#573),.UNSPECIFIED.,.F.,.F.)
B_SPLINE_CURVE_WITH_KNOTS((3,3),(0.000,1.000),.UNSPECIFIED.)
CURVE()
GEOMETRIC_REPRESENTATION_ITEM()
RATIONAL_B_SPLINE_CURVE((1.0000000000,0.7071067812,1.0000000000))
REPRESENTATION_ITEM('')
);

#653=EDGE_CURVE('',#646,#596,#649,.T.);
#654=ORIENTED_EDGE('',*,*,#653,.T.);
#655=EDGE_LOOP('',(#633,#641,#648,#654));
#656=FACE_OUTER_BOUND('',#655,.T.);
#657=ADVANCED_FACE('',(#656),#618,.T.);
#658=COLOUR_RGB('',0.39,0.39,0.39);
#659=FILL_AREA_STYLE_COLOUR('',#658);
#660=FILL_AREA_STYLE('',(#659));
#661=SURFACE_STYLE_FILL_AREA(#660);
#662=SURFACE_STYLE_TRANSPARENT(0.00);
#663=SURFACE_STYLE_RENDERING_WITH_PROPERTIES(.NORMAL_SHADING.,#658,(#662));
#664=SURFACE_SIDE_STYLE('',(#661, #663));
#665=SURFACE_STYLE_USAGE(.BOTH.,#664);
#666=PRESENTATION_STYLE_ASSIGNMENT((#665));
#667=STYLED_ITEM('',(#666),#657);

#671=CARTESIAN_POINT('',(-28.00000,-2.00000,28.00000));
#668=(
BOUNDED_SURFACE()
B_SPLINE_SURFACE(2,1,((#623,#424),(#671,#473),(#519,#322)),.UNSPECIFIED.,.F.,.F.,.F.)
B_SPLINE_SURFACE_WITH_KNOTS((3,3),(2,2),(0.000,1.000),(0.000,1.000),.UNSPECIFIED.)
GEOMETRIC_REPRESENTATION_ITEM()
RATIONAL_B_SPLINE_SURFACE(((1.0000000000,1.0000000000),(0.7071067812,0.7071067812),(1.0000000000,1.0000000000)))
REPRESENTATION_ITEM('')
SURFACE()
);

#683=ORIENTED_EDGE('',*,*,#647,.F.);
#691=ORIENTED_EDGE('',*,*,#503,.F.);
#698=ORIENTED_EDGE('',*,*,#532,.F.);
#699=(
BOUNDED_CURVE()
B_SPLINE_CURVE(2,(#519,#671,#623),.UNSPECIFIED.,.F.,.F.)
B_SPLINE_CURVE_WITH_KNOTS((3,3),(0.000,1.000),.UNSPECIFIED.)
CURVE()
GEOMETRIC_REPRESENTATION_ITEM()
RATIONAL_B_SPLINE_CURVE((1.0000000000,0.7071067812,1.0000000000))
REPRESENTATION_ITEM('')
);

#703=EDGE_CURVE('',#526,#646,#699,.T.);
#704=ORIENTED_EDGE('',*,*,#703,.T.);
#705=EDGE_LOOP('',(#683,#691,#698,#704));
#706=FACE_OUTER_BOUND('',#705,.T.);
#707=ADVANCED_FACE('',(#706),#668,.T.);
#708=COLOUR_RGB('',0.39,0.39,0.39);
#709=FILL_AREA_STYLE_COLOUR('',#708);
#710=FILL_AREA_STYLE('',(#709));
#711=SURFACE_STYLE_FILL_AREA(#710);
#712=SURFACE_STYLE_TRANSPARENT(0.00);
#713=SURFACE_STYLE_RENDERING_WITH_PROPERTIES(.NORMAL_SHADING.,#708,(#712));
#714=SURFACE_SIDE_STYLE('',(#711, #713));
#715=SURFACE_STYLE_USAGE(.BOTH.,#714);
#716=PRESENTATION_STYLE_ASSIGNMENT((#715));
#717=STYLED_ITEM('',(#716),#707);

#719=CARTESIAN_POINT('',(31.17080,-2.00000,-31.17080));
#720=CARTESIAN_POINT('',(-31.17080,-2.00000,-31.17080));
#721=CARTESIAN_POINT('',(31.17080,-2.00000,31.17080));
#722=CARTESIAN_POINT('',(-31.17080,-2.00000,31.17080));
#718=(
BOUNDED_SURFACE()
B_SPLINE_SURFACE(1,1,((#719,#720),(#721,#722)),.UNSPECIFIED.,.F.,.F.,.F.)
B_SPLINE_SURFACE_WITH_KNOTS((2,2),(2,2),(0.000,1.000),(0.000,1.000),.UNSPECIFIED.)
GEOMETRIC_REPRESENTATION_ITEM()
RATIONAL_B_SPLINE_SURFACE(((1.0000000000,1.0000000000),(1.0000000000,1.0000000000)))
REPRESENTATION_ITEM('')
SURFACE()
);

#723=CARTESIAN_POINT('',(0.00000,-2.00000,29.80000));
#724=VERTEX_POINT('',#723);
#727=CARTESIAN_POINT('',(29.80000,-2.00000,29.80000));
#728=CARTESIAN_POINT('',(29.80000,-2.00000,-0.00000));
#725=(
BOUNDED_CURVE()
B_SPLINE_CURVE(2,(#723,#727,#728),.UNSPECIFIED.,.F.,.F.)
B_SPLINE_CURVE_WITH_KNOTS((3,3),(0.000,1.000),.UNSPECIFIED.)
CURVE()
GEOMETRIC_REPRESENTATION_ITEM()
RATIONAL_B_SPLINE_CURVE((1.0000000000,0.7071067812,1.0000000000))
REPRESENTATION_ITEM('')
);

#730=VERTEX_POINT('',#728);
#731=EDGE_CURVE('',#724,#730,#725,.T.);
#732=ORIENTED_EDGE('',*,*,#731,.T.);
#735=CARTESIAN_POINT('',(29.80000,-2.00000,-29.80000));
#736=CARTESIAN_POINT('',(-0.00000,-2.00000,-29.80000));
#733=(
BOUNDED_CURVE()
B_SPLINE_CURVE(2,(#728,#735,#736),.UNSPECIFIED.,.F.,.F.)
B_SPLINE_CURVE_WITH_KNOTS((3,3),(0.000,1.000),.UNSPECIFIED.)
CURVE()
GEOMETRIC_REPRESENTATION_ITEM()
RATIONAL_B_SPLINE_CURVE((1.0000000000,0.7071067812,1.0000000000))
REPRESENTATION_ITEM('')
);

#738=VERTEX_POINT('',#736);
#739=EDGE_CURVE('',#730,#738,#733,.T.);
#740=ORIENTED_EDGE('',*,*,#739,.T.);
#743=CARTESIAN_POINT('',(-29.80000,-2.00000,-29.80000));
#744=CARTESIAN_POINT('',(-29.80000,-2.00000,0.00000));
#741=(
BOUNDED_CURVE()
B_SPLINE_CURVE(2,(#736,#743,#744),.UNSPECIFIED.,.F.,.F.)
B_SPLINE_CURVE_WITH_KNOTS((3,3),(0.000,1.000),.UNSPECIFIED.)
CURVE()
GEOMETRIC_REPRESENTATION_ITEM()
RATIONAL_B_SPLINE_CURVE((1.0000000000,0.7071067812,1.0000000000))
REPRESENTATION_ITEM('')
);

#746=VERTEX_POINT('',#744);
#747=EDGE_CURVE('',#738,#746,#741,.T.);
#748=ORIENTED_EDGE('',*,*,#747,.T.);
#751=CARTESIAN_POINT('',(-29.80000,-2.00000,29.80000));
#749=(
BOUNDED_CURVE()
B_SPLINE_CURVE(2,(#744,#751,#723),.UNSPECIFIED.,.F.,.F.)
B_SPLINE_CURVE_WITH_KNOTS((3,3),(0.000,1.000),.UNSPECIFIED.)
CURVE()
GEOMETRIC_REPRESENTATION_ITEM()
RATIONAL_B_SPLINE_CURVE((1.0000000000,0.7071067812,1.0000000000))
REPRESENTATION_ITEM('')
);

#753=EDGE_CURVE('',#746,#724,#749,.T.);
#754=ORIENTED_EDGE('',*,*,#753,.T.);
#755=EDGE_LOOP('',(#732,#740,#748,#754));
#756=FACE_OUTER_BOUND('',#755,.T.);
#766=ORIENTED_EDGE('',*,*,#603,.F.);
#774=ORIENTED_EDGE('',*,*,#653,.F.);
#782=ORIENTED_EDGE('',*,*,#703,.F.);
#788=ORIENTED_EDGE('',*,*,#553,.F.);
#789=EDGE_LOOP('',(#766,#774,#782,#788));
#790=FACE_BOUND('',#789,.T.);
#791=ADVANCED_FACE('',(#756,#790),#718,.T.);
#792=COLOUR_RGB('',0.39,0.39,0.39);
#793=FILL_AREA_STYLE_COLOUR('',#792);
#794=FILL_AREA_STYLE('',(#793));
#795=SURFACE_STYLE_FILL_AREA(#794);
#796=SURFACE_STYLE_TRANSPARENT(0.00);
#797=SURFACE_STYLE_RENDERING_WITH_PROPERTIES(.NORMAL_SHADING.,#792,(#796));
#798=SURFACE_SIDE_STYLE('',(#795, #797));
#799=SURFACE_STYLE_USAGE(.BOTH.,#798);
#800=PRESENTATION_STYLE_ASSIGNMENT((#799));
#801=STYLED_ITEM('',(#800),#791);

#803=CARTESIAN_POINT('',(-29.80000,0.00000,0.00000));
#805=CARTESIAN_POINT('',(-29.80000,0.00000,-29.80000));
#807=CARTESIAN_POINT('',(-0.00000,0.00000,-29.80000));
#802=(
BOUNDED_SURFACE()
B_SPLINE_SURFACE(2,1,((#803,#744),(#805,#743),(#807,#736)),.UNSPECIFIED.,.F.,.F.,.F.)
B_SPLINE_SURFACE_WITH_KNOTS((3,3),(2,2),(0.000,1.000),(0.000,1.000),.UNSPECIFIED.)
GEOMETRIC_REPRESENTATION_ITEM()
RATIONAL_B_SPLINE_SURFACE(((1.0000000000,1.0000000000),(0.7071067812,0.7071067812),(1.0000000000,1.0000000000)))
REPRESENTATION_ITEM('')
SURFACE()
);

#810=VERTEX_POINT('',#803);
#811=(
BOUNDED_CURVE()
B_SPLINE_CURVE(1,(#803,#744),.UNSPECIFIED.,.F.,.F.)
B_SPLINE_CURVE_WITH_KNOTS((2,2),(0.000,1.000),.UNSPECIFIED.)
CURVE()
GEOMETRIC_REPRESENTATION_ITEM()
RATIONAL_B_SPLINE_CURVE((1.0000000000,1.0000000000))
REPRESENTATION_ITEM('')
);

#816=EDGE_CURVE('',#810,#746,#811,.T.);
#817=ORIENTED_EDGE('',*,*,#816,.T.);
#825=ORIENTED_EDGE('',*,*,#747,.F.);
#826=(
BOUNDED_CURVE()
B_SPLINE_CURVE(1,(#736,#807),.UNSPECIFIED.,.F.,.F.)
B_SPLINE_CURVE_WITH_KNOTS((2,2),(0.000,1.000),.UNSPECIFIED.)
CURVE()
GEOMETRIC_REPRESENTATION_ITEM()
RATIONAL_B_SPLINE_CURVE((1.0000000000,1.0000000000))
REPRESENTATION_ITEM('')
);

#830=VERTEX_POINT('',#807);
#831=EDGE_CURVE('',#738,#830,#826,.T.);
#832=ORIENTED_EDGE('',*,*,#831,.T.);
#833=(
BOUNDED_CURVE()
B_SPLINE_CURVE(2,(#807,#805,#803),.UNSPECIFIED.,.F.,.F.)
B_SPLINE_CURVE_WITH_KNOTS((3,3),(0.000,1.000),.UNSPECIFIED.)
CURVE()
GEOMETRIC_REPRESENTATION_ITEM()
RATIONAL_B_SPLINE_CURVE((1.0000000000,0.7071067812,1.0000000000))
REPRESENTATION_ITEM('')
);

#837=EDGE_CURVE('',#830,#810,#833,.T.);
#838=ORIENTED_EDGE('',*,*,#837,.T.);
#839=EDGE_LOOP('',(#817,#825,#832,#838));
#840=FACE_OUTER_BOUND('',#839,.T.);
#841=ADVANCED_FACE('',(#840),#802,.T.);
#842=COLOUR_RGB('',0.39,0.39,0.39);
#843=FILL_AREA_STYLE_COLOUR('',#842);
#844=FILL_AREA_STYLE('',(#843));
#845=SURFACE_STYLE_FILL_AREA(#844);
#846=SURFACE_STYLE_TRANSPARENT(0.00);
#847=SURFACE_STYLE_RENDERING_WITH_PROPERTIES(.NORMAL_SHADING.,#842,(#846));
#848=SURFACE_SIDE_STYLE('',(#845, #847));
#849=SURFACE_STYLE_USAGE(.BOTH.,#848);
#850=PRESENTATION_STYLE_ASSIGNMENT((#849));
#851=STYLED_ITEM('',(#850),#841);

#855=CARTESIAN_POINT('',(29.80000,0.00000,-29.80000));
#857=CARTESIAN_POINT('',(29.80000,0.00000,-0.00000));
#852=(
BOUNDED_SURFACE()
B_SPLINE_SURFACE(2,1,((#807,#736),(#855,#735),(#857,#728)),.UNSPECIFIED.,.F.,.F.,.F.)
B_SPLINE_SURFACE_WITH_KNOTS((3,3),(2,2),(0.000,1.000),(0.000,1.000),.UNSPECIFIED.)
GEOMETRIC_REPRESENTATION_ITEM()
RATIONAL_B_SPLINE_SURFACE(((1.0000000000,1.0000000000),(0.7071067812,0.7071067812),(1.0000000000,1.0000000000)))
REPRESENTATION_ITEM('')
SURFACE()
);

#867=ORIENTED_EDGE('',*,*,#831,.F.);
#875=ORIENTED_EDGE('',*,*,#739,.F.);
#876=(
BOUNDED_CURVE()
B_SPLINE_CURVE(1,(#728,#857),.UNSPECIFIED.,.F.,.F.)
B_SPLINE_CURVE_WITH_KNOTS((2,2),(0.000,1.000),.UNSPECIFIED.)
CURVE()
GEOMETRIC_REPRESENTATION_ITEM()
RATIONAL_B_SPLINE_CURVE((1.0000000000,1.0000000000))
REPRESENTATION_ITEM('')
);

#880=VERTEX_POINT('',#857);
#881=EDGE_CURVE('',#730,#880,#876,.T.);
#882=ORIENTED_EDGE('',*,*,#881,.T.);
#883=(
BOUNDED_CURVE()
B_SPLINE_CURVE(2,(#857,#855,#807),.UNSPECIFIED.,.F.,.F.)
B_SPLINE_CURVE_WITH_KNOTS((3,3),(0.000,1.000),.UNSPECIFIED.)
CURVE()
GEOMETRIC_REPRESENTATION_ITEM()
RATIONAL_B_SPLINE_CURVE((1.0000000000,0.7071067812,1.0000000000))
REPRESENTATION_ITEM('')
);

#887=EDGE_CURVE('',#880,#830,#883,.T.);
#888=ORIENTED_EDGE('',*,*,#887,.T.);
#889=EDGE_LOOP('',(#867,#875,#882,#888));
#890=FACE_OUTER_BOUND('',#889,.T.);
#891=ADVANCED_FACE('',(#890),#852,.T.);
#892=COLOUR_RGB('',0.39,0.39,0.39);
#893=FILL_AREA_STYLE_COLOUR('',#892);
#894=FILL_AREA_STYLE('',(#893));
#895=SURFACE_STYLE_FILL_AREA(#894);
#896=SURFACE_STYLE_TRANSPARENT(0.00);
#897=SURFACE_STYLE_RENDERING_WITH_PROPERTIES(.NORMAL_SHADING.,#892,(#896));
#898=SURFACE_SIDE_STYLE('',(#895, #897));
#899=SURFACE_STYLE_USAGE(.BOTH.,#898);
#900=PRESENTATION_STYLE_ASSIGNMENT((#899));
#901=STYLED_ITEM('',(#900),#891);

#905=CARTESIAN_POINT('',(29.80000,0.00000,29.80000));
#907=CARTESIAN_POINT('',(0.00000,0.00000,29.80000));
#902=(
BOUNDED_SURFACE()
B_SPLINE_SURFACE(2,1,((#857,#728),(#905,#727),(#907,#723)),.UNSPECIFIED.,.F.,.F.,.F.)
B_SPLINE_SURFACE_WITH_KNOTS((3,3),(2,2),(0.000,1.000),(0.000,1.000),.UNSPECIFIED.)
GEOMETRIC_REPRESENTATION_ITEM()
RATIONAL_B_SPLINE_SURFACE(((1.0000000000,1.0000000000),(0.7071067812,0.7071067812),(1.0000000000,1.0000000000)))
REPRESENTATION_ITEM('')
SURFACE()
);

#917=ORIENTED_EDGE('',*,*,#881,.F.);
#925=ORIENTED_EDGE('',*,*,#731,.F.);
#926=(
BOUNDED_CURVE()
B_SPLINE_CURVE(1,(#723,#907),.UNSPECIFIED.,.F.,.F.)
B_SPLINE_CURVE_WITH_KNOTS((2,2),(0.000,1.000),.UNSPECIFIED.)
CURVE()
GEOMETRIC_REPRESENTATION_ITEM()
RATIONAL_B_SPLINE_CURVE((1.0000000000,1.0000000000))
REPRESENTATION_ITEM('')
);

#930=VERTEX_POINT('',#907);
#931=EDGE_CURVE('',#724,#930,#926,.T.);
#932=ORIENTED_EDGE('',*,*,#931,.T.);
#933=(
BOUNDED_CURVE()
B_SPLINE_CURVE(2,(#907,#905,#857),.UNSPECIFIED.,.F.,.F.)
B_SPLINE_CURVE_WITH_KNOTS((3,3),(0.000,1.000),.UNSPECIFIED.)
CURVE()
GEOMETRIC_REPRESENTATION_ITEM()
RATIONAL_B_SPLINE_CURVE((1.0000000000,0.7071067812,1.0000000000))
REPRESENTATION_ITEM('')
);

#937=EDGE_CURVE('',#930,#880,#933,.T.);
#938=ORIENTED_EDGE('',*,*,#937,.T.);
#939=EDGE_LOOP('',(#917,#925,#932,#938));
#940=FACE_OUTER_BOUND('',#939,.T.);
#941=ADVANCED_FACE('',(#940),#902,.T.);
#942=COLOUR_RGB('',0.39,0.39,0.39);
#943=FILL_AREA_STYLE_COLOUR('',#942);
#944=FILL_AREA_STYLE('',(#943));
#945=SURFACE_STYLE_FILL_AREA(#944);
#946=SURFACE_STYLE_TRANSPARENT(0.00);
#947=SURFACE_STYLE_RENDERING_WITH_PROPERTIES(.NORMAL_SHADING.,#942,(#946));
#948=SURFACE_SIDE_STYLE('',(#945, #947));
#949=SURFACE_STYLE_USAGE(.BOTH.,#948);
#950=PRESENTATION_STYLE_ASSIGNMENT((#949));
#951=STYLED_ITEM('',(#950),#941);

#955=CARTESIAN_POINT('',(-29.80000,0.00000,29.80000));
#952=(
BOUNDED_SURFACE()
B_SPLINE_SURFACE(2,1,((#907,#723),(#955,#751),(#803,#744)),.UNSPECIFIED.,.F.,.F.,.F.)
B_SPLINE_SURFACE_WITH_KNOTS((3,3),(2,2),(0.000,1.000),(0.000,1.000),.UNSPECIFIED.)
GEOMETRIC_REPRESENTATION_ITEM()
RATIONAL_B_SPLINE_SURFACE(((1.0000000000,1.0000000000),(0.7071067812,0.7071067812),(1.0000000000,1.0000000000)))
REPRESENTATION_ITEM('')
SURFACE()
);

#967=ORIENTED_EDGE('',*,*,#931,.F.);
#975=ORIENTED_EDGE('',*,*,#753,.F.);
#982=ORIENTED_EDGE('',*,*,#816,.F.);
#983=(
BOUNDED_CURVE()
B_SPLINE_CURVE(2,(#803,#955,#907),.UNSPECIFIED.,.F.,.F.)
B_SPLINE_CURVE_WITH_KNOTS((3,3),(0.000,1.000),.UNSPECIFIED.)
CURVE()
GEOMETRIC_REPRESENTATION_ITEM()
RATIONAL_B_SPLINE_CURVE((1.0000000000,0.7071067812,1.0000000000))
REPRESENTATION_ITEM('')
);

#987=EDGE_CURVE('',#810,#930,#983,.T.);
#988=ORIENTED_EDGE('',*,*,#987,.T.);
#989=EDGE_LOOP('',(#967,#975,#982,#988));
#990=FACE_OUTER_BOUND('',#989,.T.);
#991=ADVANCED_FACE('',(#990),#952,.T.);
#992=COLOUR_RGB('',0.39,0.39,0.39);
#993=FILL_AREA_STYLE_COLOUR('',#992);
#994=FILL_AREA_STYLE('',(#993));
#995=SURFACE_STYLE_FILL_AREA(#994);
#996=SURFACE_STYLE_TRANSPARENT(0.00);
#997=SURFACE_STYLE_RENDERING_WITH_PROPERTIES(.NORMAL_SHADING.,#992,(#996));
#998=SURFACE_SIDE_STYLE('',(#995, #997));
#999=SURFACE_STYLE_USAGE(.BOTH.,#998);
#1000=PRESENTATION_STYLE_ASSIGNMENT((#999));
#1001=STYLED_ITEM('',(#1000),#991);

#1003=CARTESIAN_POINT('',(31.17080,0.00000,31.17080));
#1004=CARTESIAN_POINT('',(-31.17080,0.00000,31.17080));
#1005=CARTESIAN_POINT('',(31.17080,0.00000,-31.17080));
#1006=CARTESIAN_POINT('',(-31.17080,0.00000,-31.17080));
#1002=(
BOUNDED_SURFACE()
B_SPLINE_SURFACE(1,1,((#1003,#1004),(#1005,#1006)),.UNSPECIFIED.,.F.,.F.,.F.)
B_SPLINE_SURFACE_WITH_KNOTS((2,2),(2,2),(0.000,1.000),(0.000,1.000),.UNSPECIFIED.)
GEOMETRIC_REPRESENTATION_ITEM()
RATIONAL_B_SPLINE_SURFACE(((1.0000000000,1.0000000000),(1.0000000000,1.0000000000)))
REPRESENTATION_ITEM('')
SURFACE()
);

#1016=ORIENTED_EDGE('',*,*,#887,.F.);
#1024=ORIENTED_EDGE('',*,*,#937,.F.);
#1032=ORIENTED_EDGE('',*,*,#987,.F.);
#1038=ORIENTED_EDGE('',*,*,#837,.F.);
#1039=EDGE_LOOP('',(#1016,#1024,#1032,#1038));
#1040=FACE_OUTER_BOUND('',#1039,.T.);
#1041=CARTESIAN_POINT('',(-23.20000,0.00000,-0.00000));
#1042=VERTEX_POINT('',#1041);
#1045=CARTESIAN_POINT('',(-23.20000,0.00000,1.10000));
#1046=CARTESIAN_POINT('',(-22.10000,0.00000,1.10000));
#1043=(
BOUNDED_CURVE()
B_SPLINE_CURVE(2,(#1041,#1045,#1046),.UNSPECIFIED.,.F.,.F.)
B_SPLINE_CURVE_WITH_KNOTS((3,3),(0.000,1.000),.UNSPECIFIED.)
CURVE()
GEOMETRIC_REPRESENTATION_ITEM()
RATIONAL_B_SPLINE_CURVE((1.0000000000,0.7071067812,1.0000000000))
REPRESENTATION_ITEM('')
);

#1048=VERTEX_POINT('',#1046);
#1049=EDGE_CURVE('',#1042,#1048,#1043,.T.);
#1050=ORIENTED_EDGE('',*,*,#1049,.T.);
#1053=CARTESIAN_POINT('',(-21.00000,0.00000,1.10000));
#1054=CARTESIAN_POINT('',(-21.00000,0.00000,0.00000));
#1051=(
BOUNDED_CURVE()
B_SPLINE_CURVE(2,(#1046,#1053,#1054),.UNSPECIFIED.,.F.,.F.)
B_SPLINE_CURVE_WITH_KNOTS((3,3),(0.000,1.000),.UNSPECIFIED.)
CURVE()
GEOMETRIC_REPRESENTATION_ITEM()
RATIONAL_B_SPLINE_CURVE((1.0000000000,0.7071067812,1.0000000000))
REPRESENTATION_ITEM('')
);

#1056=VERTEX_POINT('',#1054);
#1057=EDGE_CURVE('',#1048,#1056,#1051,.T.);
#1058=ORIENTED_EDGE('',*,*,#1057,.T.);
#1061=CARTESIAN_POINT('',(-21.00000,0.00000,-1.10000));
#1062=CARTESIAN_POINT('',(-22.10000,0.00000,-1.10000));
#1059=(
BOUNDED_CURVE()
B_SPLINE_CURVE(2,(#1054,#1061,#1062),.UNSPECIFIED.,.F.,.F.)
B_SPLINE_CURVE_WITH_KNOTS((3,3),(0.000,1.000),.UNSPECIFIED.)
CURVE()
GEOMETRIC_REPRESENTATION_ITEM()
RATIONAL_B_SPLINE_CURVE((1.0000000000,0.7071067812,1.0000000000))
REPRESENTATION_ITEM('')
);

#1064=VERTEX_POINT('',#1062);
#1065=EDGE_CURVE('',#1056,#1064,#1059,.T.);
#1066=ORIENTED_EDGE('',*,*,#1065,.T.);
#1069=CARTESIAN_POINT('',(-23.20000,0.00000,-1.10000));
#1067=(
BOUNDED_CURVE()
B_SPLINE_CURVE(2,(#1062,#1069,#1041),.UNSPECIFIED.,.F.,.F.)
B_SPLINE_CURVE_WITH_KNOTS((3,3),(0.000,1.000),.UNSPECIFIED.)
CURVE()
GEOMETRIC_REPRESENTATION_ITEM()
RATIONAL_B_SPLINE_CURVE((1.0000000000,0.7071067812,1.0000000000))
REPRESENTATION_ITEM('')
);

#1071=EDGE_CURVE('',#1064,#1042,#1067,.T.);
#1072=ORIENTED_EDGE('',*,*,#1071,.T.);
#1073=EDGE_LOOP('',(#1050,#1058,#1066,#1072));
#1074=FACE_BOUND('',#1073,.T.);
#1075=CARTESIAN_POINT('',(22.10000,0.00000,-1.10000));
#1076=VERTEX_POINT('',#1075);
#1079=CARTESIAN_POINT('',(21.00000,0.00000,-1.10000));
#1080=CARTESIAN_POINT('',(21.00000,0.00000,-0.00000));
#1077=(
BOUNDED_CURVE()
B_SPLINE_CURVE(2,(#1075,#1079,#1080),.UNSPECIFIED.,.F.,.F.)
B_SPLINE_CURVE_WITH_KNOTS((3,3),(0.000,1.000),.UNSPECIFIED.)
CURVE()
GEOMETRIC_REPRESENTATION_ITEM()
RATIONAL_B_SPLINE_CURVE((1.0000000000,0.7071067812,1.0000000000))
REPRESENTATION_ITEM('')
);

#1082=VERTEX_POINT('',#1080);
#1083=EDGE_CURVE('',#1076,#1082,#1077,.T.);
#1084=ORIENTED_EDGE('',*,*,#1083,.T.);
#1087=CARTESIAN_POINT('',(21.00000,0.00000,1.10000));
#1088=CARTESIAN_POINT('',(22.10000,0.00000,1.10000));
#1085=(
BOUNDED_CURVE()
B_SPLINE_CURVE(2,(#1080,#1087,#1088),.UNSPECIFIED.,.F.,.F.)
B_SPLINE_CURVE_WITH_KNOTS((3,3),(0.000,1.000),.UNSPECIFIED.)
CURVE()
GEOMETRIC_REPRESENTATION_ITEM()
RATIONAL_B_SPLINE_CURVE((1.0000000000,0.7071067812,1.0000000000))
REPRESENTATION_ITEM('')
);

#1090=VERTEX_POINT('',#1088);
#1091=EDGE_CURVE('',#1082,#1090,#1085,.T.);
#1092=ORIENTED_EDGE('',*,*,#1091,.T.);
#1095=CARTESIAN_POINT('',(23.20000,0.00000,1.10000));
#1096=CARTESIAN_POINT('',(23.20000,0.00000,0.00000));
#1093=(
BOUNDED_CURVE()
B_SPLINE_CURVE(2,(#1088,#1095,#1096),.UNSPECIFIED.,.F.,.F.)
B_SPLINE_CURVE_WITH_KNOTS((3,3),(0.000,1.000),.UNSPECIFIED.)
CURVE()
GEOMETRIC_REPRESENTATION_ITEM()
RATIONAL_B_SPLINE_CURVE((1.0000000000,0.7071067812,1.0000000000))
REPRESENTATION_ITEM('')
);

#1098=VERTEX_POINT('',#1096);
#1099=EDGE_CURVE('',#1090,#1098,#1093,.T.);
#1100=ORIENTED_EDGE('',*,*,#1099,.T.);
#1103=CARTESIAN_POINT('',(23.20000,0.00000,-1.10000));
#1101=(
BOUNDED_CURVE()
B_SPLINE_CURVE(2,(#1096,#1103,#1075),.UNSPECIFIED.,.F.,.F.)
B_SPLINE_CURVE_WITH_KNOTS((3,3),(0.000,1.000),.UNSPECIFIED.)
CURVE()
GEOMETRIC_REPRESENTATION_ITEM()
RATIONAL_B_SPLINE_CURVE((1.0000000000,0.7071067812,1.0000000000))
REPRESENTATION_ITEM('')
);

#1105=EDGE_CURVE('',#1098,#1076,#1101,.T.);
#1106=ORIENTED_EDGE('',*,*,#1105,.T.);
#1107=EDGE_LOOP('',(#1084,#1092,#1100,#1106));
#1108=FACE_BOUND('',#1107,.T.);
#1109=ADVANCED_FACE('',(#1040,#1074,#1108),#1002,.T.);
#1110=COLOUR_RGB('',0.39,0.39,0.39);
#1111=FILL_AREA_STYLE_COLOUR('',#1110);
#1112=FILL_AREA_STYLE('',(#1111));
#1113=SURFACE_STYLE_FILL_AREA(#1112);
#1114=SURFACE_STYLE_TRANSPARENT(0.00);
#1115=SURFACE_STYLE_RENDERING_WITH_PROPERTIES(.NORMAL_SHADING.,#1110,(#1114));
#1116=SURFACE_SIDE_STYLE('',(#1113, #1115));
#1117=SURFACE_STYLE_USAGE(.BOTH.,#1116);
#1118=PRESENTATION_STYLE_ASSIGNMENT((#1117));
#1119=STYLED_ITEM('',(#1118),#1109);

#1121=CARTESIAN_POINT('',(-22.10000,-0.45000,-1.10000));
#1123=CARTESIAN_POINT('',(-21.00000,-0.45000,-1.10000));
#1125=CARTESIAN_POINT('',(-21.00000,-0.45000,0.00000));
#1120=(
BOUNDED_SURFACE()
B_SPLINE_SURFACE(2,1,((#1121,#1062),(#1123,#1061),(#1125,#1054)),.UNSPECIFIED.,.F.,.F.,.F.)
B_SPLINE_SURFACE_WITH_KNOTS((3,3),(2,2),(0.000,1.000),(0.000,1.000),.UNSPECIFIED.)
GEOMETRIC_REPRESENTATION_ITEM()
RATIONAL_B_SPLINE_SURFACE(((1.0000000000,1.0000000000),(0.7071067812,0.7071067812),(1.0000000000,1.0000000000)))
REPRESENTATION_ITEM('')
SURFACE()
);

#1129=(
BOUNDED_CURVE()
B_SPLINE_CURVE(1,(#1054,#1125),.UNSPECIFIED.,.F.,.F.)
B_SPLINE_CURVE_WITH_KNOTS((2,2),(0.000,1.000),.UNSPECIFIED.)
CURVE()
GEOMETRIC_REPRESENTATION_ITEM()
RATIONAL_B_SPLINE_CURVE((1.0000000000,1.0000000000))
REPRESENTATION_ITEM('')
);

#1133=VERTEX_POINT('',#1125);
#1134=EDGE_CURVE('',#1056,#1133,#1129,.T.);
#1135=ORIENTED_EDGE('',*,*,#1134,.T.);
#1136=(
BOUNDED_CURVE()
B_SPLINE_CURVE(2,(#1125,#1123,#1121),.UNSPECIFIED.,.F.,.F.)
B_SPLINE_CURVE_WITH_KNOTS((3,3),(0.000,1.000),.UNSPECIFIED.)
CURVE()
GEOMETRIC_REPRESENTATION_ITEM()
RATIONAL_B_SPLINE_CURVE((1.0000000000,0.7071067812,1.0000000000))
REPRESENTATION_ITEM('')
);

#1141=VERTEX_POINT('',#1121);
#1142=EDGE_CURVE('',#1133,#1141,#1136,.T.);
#1143=ORIENTED_EDGE('',*,*,#1142,.T.);
#1144=(
BOUNDED_CURVE()
B_SPLINE_CURVE(1,(#1121,#1062),.UNSPECIFIED.,.F.,.F.)
B_SPLINE_CURVE_WITH_KNOTS((2,2),(0.000,1.000),.UNSPECIFIED.)
CURVE()
GEOMETRIC_REPRESENTATION_ITEM()
RATIONAL_B_SPLINE_CURVE((1.0000000000,1.0000000000))
REPRESENTATION_ITEM('')
);

#1149=EDGE_CURVE('',#1141,#1064,#1144,.T.);
#1150=ORIENTED_EDGE('',*,*,#1149,.T.);
#1156=ORIENTED_EDGE('',*,*,#1065,.F.);
#1157=EDGE_LOOP('',(#1135,#1143,#1150,#1156));
#1158=FACE_OUTER_BOUND('',#1157,.T.);
#1159=ADVANCED_FACE('',(#1158),#1120,.T.);
#1160=COLOUR_RGB('',0.39,0.39,0.39);
#1161=FILL_AREA_STYLE_COLOUR('',#1160);
#1162=FILL_AREA_STYLE('',(#1161));
#1163=SURFACE_STYLE_FILL_AREA(#1162);
#1164=SURFACE_STYLE_TRANSPARENT(0.00);
#1165=SURFACE_STYLE_RENDERING_WITH_PROPERTIES(.NORMAL_SHADING.,#1160,(#1164));
#1166=SURFACE_SIDE_STYLE('',(#1163, #1165));
#1167=SURFACE_STYLE_USAGE(.BOTH.,#1166);
#1168=PRESENTATION_STYLE_ASSIGNMENT((#1167));
#1169=STYLED_ITEM('',(#1168),#1159);

#1171=CARTESIAN_POINT('',(-23.20000,-0.45000,-0.00000));
#1173=CARTESIAN_POINT('',(-23.20000,-0.45000,-1.10000));
#1170=(
BOUNDED_SURFACE()
B_SPLINE_SURFACE(2,1,((#1171,#1041),(#1173,#1069),(#1121,#1062)),.UNSPECIFIED.,.F.,.F.,.F.)
B_SPLINE_SURFACE_WITH_KNOTS((3,3),(2,2),(0.000,1.000),(0.000,1.000),.UNSPECIFIED.)
GEOMETRIC_REPRESENTATION_ITEM()
RATIONAL_B_SPLINE_SURFACE(((1.0000000000,1.0000000000),(0.7071067812,0.7071067812),(1.0000000000,1.0000000000)))
REPRESENTATION_ITEM('')
SURFACE()
);

#1185=ORIENTED_EDGE('',*,*,#1149,.F.);
#1186=(
BOUNDED_CURVE()
B_SPLINE_CURVE(2,(#1121,#1173,#1171),.UNSPECIFIED.,.F.,.F.)
B_SPLINE_CURVE_WITH_KNOTS((3,3),(0.000,1.000),.UNSPECIFIED.)
CURVE()
GEOMETRIC_REPRESENTATION_ITEM()
RATIONAL_B_SPLINE_CURVE((1.0000000000,0.7071067812,1.0000000000))
REPRESENTATION_ITEM('')
);

#1191=VERTEX_POINT('',#1171);
#1192=EDGE_CURVE('',#1141,#1191,#1186,.T.);
#1193=ORIENTED_EDGE('',*,*,#1192,.T.);
#1194=(
BOUNDED_CURVE()
B_SPLINE_CURVE(1,(#1171,#1041),.UNSPECIFIED.,.F.,.F.)
B_SPLINE_CURVE_WITH_KNOTS((2,2),(0.000,1.000),.UNSPECIFIED.)
CURVE()
GEOMETRIC_REPRESENTATION_ITEM()
RATIONAL_B_SPLINE_CURVE((1.0000000000,1.0000000000))
REPRESENTATION_ITEM('')
);

#1199=EDGE_CURVE('',#1191,#1042,#1194,.T.);
#1200=ORIENTED_EDGE('',*,*,#1199,.T.);
#1206=ORIENTED_EDGE('',*,*,#1071,.F.);
#1207=EDGE_LOOP('',(#1185,#1193,#1200,#1206));
#1208=FACE_OUTER_BOUND('',#1207,.T.);
#1209=ADVANCED_FACE('',(#1208),#1170,.T.);
#1210=COLOUR_RGB('',0.39,0.39,0.39);
#1211=FILL_AREA_STYLE_COLOUR('',#1210);
#1212=FILL_AREA_STYLE('',(#1211));
#1213=SURFACE_STYLE_FILL_AREA(#1212);
#1214=SURFACE_STYLE_TRANSPARENT(0.00);
#1215=SURFACE_STYLE_RENDERING_WITH_PROPERTIES(.NORMAL_SHADING.,#1210,(#1214));
#1216=SURFACE_SIDE_STYLE('',(#1213, #1215));
#1217=SURFACE_STYLE_USAGE(.BOTH.,#1216);
#1218=PRESENTATION_STYLE_ASSIGNMENT((#1217));
#1219=STYLED_ITEM('',(#1218),#1209);

#1221=CARTESIAN_POINT('',(-22.10000,-0.45000,1.10000));
#1223=CARTESIAN_POINT('',(-23.20000,-0.45000,1.10000));
#1220=(
BOUNDED_SURFACE()
B_SPLINE_SURFACE(2,1,((#1221,#1046),(#1223,#1045),(#1171,#1041)),.UNSPECIFIED.,.F.,.F.,.F.)
B_SPLINE_SURFACE_WITH_KNOTS((3,3),(2,2),(0.000,1.000),(0.000,1.000),.UNSPECIFIED.)
GEOMETRIC_REPRESENTATION_ITEM()
RATIONAL_B_SPLINE_SURFACE(((1.0000000000,1.0000000000),(0.7071067812,0.7071067812),(1.0000000000,1.0000000000)))
REPRESENTATION_ITEM('')
SURFACE()
);

#1235=ORIENTED_EDGE('',*,*,#1199,.F.);
#1236=(
BOUNDED_CURVE()
B_SPLINE_CURVE(2,(#1171,#1223,#1221),.UNSPECIFIED.,.F.,.F.)
B_SPLINE_CURVE_WITH_KNOTS((3,3),(0.000,1.000),.UNSPECIFIED.)
CURVE()
GEOMETRIC_REPRESENTATION_ITEM()
RATIONAL_B_SPLINE_CURVE((1.0000000000,0.7071067812,1.0000000000))
REPRESENTATION_ITEM('')
);

#1241=VERTEX_POINT('',#1221);
#1242=EDGE_CURVE('',#1191,#1241,#1236,.T.);
#1243=ORIENTED_EDGE('',*,*,#1242,.T.);
#1244=(
BOUNDED_CURVE()
B_SPLINE_CURVE(1,(#1221,#1046),.UNSPECIFIED.,.F.,.F.)
B_SPLINE_CURVE_WITH_KNOTS((2,2),(0.000,1.000),.UNSPECIFIED.)
CURVE()
GEOMETRIC_REPRESENTATION_ITEM()
RATIONAL_B_SPLINE_CURVE((1.0000000000,1.0000000000))
REPRESENTATION_ITEM('')
);

#1249=EDGE_CURVE('',#1241,#1048,#1244,.T.);
#1250=ORIENTED_EDGE('',*,*,#1249,.T.);
#1256=ORIENTED_EDGE('',*,*,#1049,.F.);
#1257=EDGE_LOOP('',(#1235,#1243,#1250,#1256));
#1258=FACE_OUTER_BOUND('',#1257,.T.);
#1259=ADVANCED_FACE('',(#1258),#1220,.T.);
#1260=COLOUR_RGB('',0.39,0.39,0.39);
#1261=FILL_AREA_STYLE_COLOUR('',#1260);
#1262=FILL_AREA_STYLE('',(#1261));
#1263=SURFACE_STYLE_FILL_AREA(#1262);
#1264=SURFACE_STYLE_TRANSPARENT(0.00);
#1265=SURFACE_STYLE_RENDERING_WITH_PROPERTIES(.NORMAL_SHADING.,#1260,(#1264));
#1266=SURFACE_SIDE_STYLE('',(#1263, #1265));
#1267=SURFACE_STYLE_USAGE(.BOTH.,#1266);
#1268=PRESENTATION_STYLE_ASSIGNMENT((#1267));
#1269=STYLED_ITEM('',(#1268),#1259);

#1273=CARTESIAN_POINT('',(-21.00000,-0.45000,1.10000));
#1270=(
BOUNDED_SURFACE()
B_SPLINE_SURFACE(2,1,((#1125,#1054),(#1273,#1053),(#1221,#1046)),.UNSPECIFIED.,.F.,.F.,.F.)
B_SPLINE_SURFACE_WITH_KNOTS((3,3),(2,2),(0.000,1.000),(0.000,1.000),.UNSPECIFIED.)
GEOMETRIC_REPRESENTATION_ITEM()
RATIONAL_B_SPLINE_SURFACE(((1.0000000000,1.0000000000),(0.7071067812,0.7071067812),(1.0000000000,1.0000000000)))
REPRESENTATION_ITEM('')
SURFACE()
);

#1286=ORIENTED_EDGE('',*,*,#1057,.F.);
#1293=ORIENTED_EDGE('',*,*,#1249,.F.);
#1294=(
BOUNDED_CURVE()
B_SPLINE_CURVE(2,(#1221,#1273,#1125),.UNSPECIFIED.,.F.,.F.)
B_SPLINE_CURVE_WITH_KNOTS((3,3),(0.000,1.000),.UNSPECIFIED.)
CURVE()
GEOMETRIC_REPRESENTATION_ITEM()
RATIONAL_B_SPLINE_CURVE((1.0000000000,0.7071067812,1.0000000000))
REPRESENTATION_ITEM('')
);

#1300=EDGE_CURVE('',#1241,#1133,#1294,.T.);
#1301=ORIENTED_EDGE('',*,*,#1300,.T.);
#1306=ORIENTED_EDGE('',*,*,#1134,.F.);
#1307=EDGE_LOOP('',(#1286,#1293,#1301,#1306));
#1308=FACE_OUTER_BOUND('',#1307,.T.);
#1309=ADVANCED_FACE('',(#1308),#1270,.T.);
#1310=COLOUR_RGB('',0.39,0.39,0.39);
#1311=FILL_AREA_STYLE_COLOUR('',#1310);
#1312=FILL_AREA_STYLE('',(#1311));
#1313=SURFACE_STYLE_FILL_AREA(#1312);
#1314=SURFACE_STYLE_TRANSPARENT(0.00);
#1315=SURFACE_STYLE_RENDERING_WITH_PROPERTIES(.NORMAL_SHADING.,#1310,(#1314));
#1316=SURFACE_SIDE_STYLE('',(#1313, #1315));
#1317=SURFACE_STYLE_USAGE(.BOTH.,#1316);
#1318=PRESENTATION_STYLE_ASSIGNMENT((#1317));
#1319=STYLED_ITEM('',(#1318),#1309);

#1320=(
BOUNDED_SURFACE()
B_SPLINE_SURFACE(1,2,((#239,#267,#260),(#1125,#1123,#1121)),.UNSPECIFIED.,.F.,.F.,.F.)
B_SPLINE_SURFACE_WITH_KNOTS((2,2),(3,3),(0.000,1.000),(0.000,1.000),.UNSPECIFIED.)
GEOMETRIC_REPRESENTATION_ITEM()
RATIONAL_B_SPLINE_SURFACE(((1.0000000000,0.7071067812,1.0000000000),(1.0000000000,0.7071067812,1.0000000000)))
REPRESENTATION_ITEM('')
SURFACE()
);

#1329=(
BOUNDED_CURVE()
B_SPLINE_CURVE(1,(#1125,#239),.UNSPECIFIED.,.F.,.F.)
B_SPLINE_CURVE_WITH_KNOTS((2,2),(0.000,1.000),.UNSPECIFIED.)
CURVE()
GEOMETRIC_REPRESENTATION_ITEM()
RATIONAL_B_SPLINE_CURVE((1.0000000000,1.0000000000))
REPRESENTATION_ITEM('')
);

#1334=EDGE_CURVE('',#1133,#240,#1329,.T.);
#1335=ORIENTED_EDGE('',*,*,#1334,.T.);
#1343=ORIENTED_EDGE('',*,*,#269,.F.);
#1344=(
BOUNDED_CURVE()
B_SPLINE_CURVE(1,(#260,#1121),.UNSPECIFIED.,.F.,.F.)
B_SPLINE_CURVE_WITH_KNOTS((2,2),(0.000,1.000),.UNSPECIFIED.)
CURVE()
GEOMETRIC_REPRESENTATION_ITEM()
RATIONAL_B_SPLINE_CURVE((1.0000000000,1.0000000000))
REPRESENTATION_ITEM('')
);

#1349=EDGE_CURVE('',#262,#1141,#1344,.T.);
#1350=ORIENTED_EDGE('',*,*,#1349,.T.);
#1356=ORIENTED_EDGE('',*,*,#1142,.F.);
#1357=EDGE_LOOP('',(#1335,#1343,#1350,#1356));
#1358=FACE_OUTER_BOUND('',#1357,.T.);
#1359=ADVANCED_FACE('',(#1358),#1320,.T.);
#1360=COLOUR_RGB('',0.39,0.39,0.39);
#1361=FILL_AREA_STYLE_COLOUR('',#1360);
#1362=FILL_AREA_STYLE('',(#1361));
#1363=SURFACE_STYLE_FILL_AREA(#1362);
#1364=SURFACE_STYLE_TRANSPARENT(0.00);
#1365=SURFACE_STYLE_RENDERING_WITH_PROPERTIES(.NORMAL_SHADING.,#1360,(#1364));
#1366=SURFACE_SIDE_STYLE('',(#1363, #1365));
#1367=SURFACE_STYLE_USAGE(.BOTH.,#1366);
#1368=PRESENTATION_STYLE_ASSIGNMENT((#1367));
#1369=STYLED_ITEM('',(#1368),#1359);

#1370=(
BOUNDED_SURFACE()
B_SPLINE_SURFACE(1,2,((#260,#259,#252),(#1121,#1173,#1171)),.UNSPECIFIED.,.F.,.F.,.F.)
B_SPLINE_SURFACE_WITH_KNOTS((2,2),(3,3),(0.000,1.000),(0.000,1.000),.UNSPECIFIED.)
GEOMETRIC_REPRESENTATION_ITEM()
RATIONAL_B_SPLINE_SURFACE(((1.0000000000,0.7071067812,1.0000000000),(1.0000000000,0.7071067812,1.0000000000)))
REPRESENTATION_ITEM('')
SURFACE()
);

#1385=ORIENTED_EDGE('',*,*,#1349,.F.);
#1393=ORIENTED_EDGE('',*,*,#263,.F.);
#1394=(
BOUNDED_CURVE()
B_SPLINE_CURVE(1,(#252,#1171),.UNSPECIFIED.,.F.,.F.)
B_SPLINE_CURVE_WITH_KNOTS((2,2),(0.000,1.000),.UNSPECIFIED.)
CURVE()
GEOMETRIC_REPRESENTATION_ITEM()
RATIONAL_B_SPLINE_CURVE((1.0000000000,1.0000000000))
REPRESENTATION_ITEM('')
);

#1399=EDGE_CURVE('',#254,#1191,#1394,.T.);
#1400=ORIENTED_EDGE('',*,*,#1399,.T.);
#1406=ORIENTED_EDGE('',*,*,#1192,.F.);
#1407=EDGE_LOOP('',(#1385,#1393,#1400,#1406));
#1408=FACE_OUTER_BOUND('',#1407,.T.);
#1409=ADVANCED_FACE('',(#1408),#1370,.T.);
#1410=COLOUR_RGB('',0.39,0.39,0.39);
#1411=FILL_AREA_STYLE_COLOUR('',#1410);
#1412=FILL_AREA_STYLE('',(#1411));
#1413=SURFACE_STYLE_FILL_AREA(#1412);
#1414=SURFACE_STYLE_TRANSPARENT(0.00);
#1415=SURFACE_STYLE_RENDERING_WITH_PROPERTIES(.NORMAL_SHADING.,#1410,(#1414));
#1416=SURFACE_SIDE_STYLE('',(#1413, #1415));
#1417=SURFACE_STYLE_USAGE(.BOTH.,#1416);
#1418=PRESENTATION_STYLE_ASSIGNMENT((#1417));
#1419=STYLED_ITEM('',(#1418),#1409);

#1420=(
BOUNDED_SURFACE()
B_SPLINE_SURFACE(1,2,((#252,#251,#244),(#1171,#1223,#1221)),.UNSPECIFIED.,.F.,.F.,.F.)
B_SPLINE_SURFACE_WITH_KNOTS((2,2),(3,3),(0.000,1.000),(0.000,1.000),.UNSPECIFIED.)
GEOMETRIC_REPRESENTATION_ITEM()
RATIONAL_B_SPLINE_SURFACE(((1.0000000000,0.7071067812,1.0000000000),(1.0000000000,0.7071067812,1.0000000000)))
REPRESENTATION_ITEM('')
SURFACE()
);

#1435=ORIENTED_EDGE('',*,*,#1399,.F.);
#1443=ORIENTED_EDGE('',*,*,#255,.F.);
#1444=(
BOUNDED_CURVE()
B_SPLINE_CURVE(1,(#244,#1221),.UNSPECIFIED.,.F.,.F.)
B_SPLINE_CURVE_WITH_KNOTS((2,2),(0.000,1.000),.UNSPECIFIED.)
CURVE()
GEOMETRIC_REPRESENTATION_ITEM()
RATIONAL_B_SPLINE_CURVE((1.0000000000,1.0000000000))
REPRESENTATION_ITEM('')
);

#1449=EDGE_CURVE('',#246,#1241,#1444,.T.);
#1450=ORIENTED_EDGE('',*,*,#1449,.T.);
#1456=ORIENTED_EDGE('',*,*,#1242,.F.);
#1457=EDGE_LOOP('',(#1435,#1443,#1450,#1456));
#1458=FACE_OUTER_BOUND('',#1457,.T.);
#1459=ADVANCED_FACE('',(#1458),#1420,.T.);
#1460=COLOUR_RGB('',0.39,0.39,0.39);
#1461=FILL_AREA_STYLE_COLOUR('',#1460);
#1462=FILL_AREA_STYLE('',(#1461));
#1463=SURFACE_STYLE_FILL_AREA(#1462);
#1464=SURFACE_STYLE_TRANSPARENT(0.00);
#1465=SURFACE_STYLE_RENDERING_WITH_PROPERTIES(.NORMAL_SHADING.,#1460,(#1464));
#1466=SURFACE_SIDE_STYLE('',(#1463, #1465));
#1467=SURFACE_STYLE_USAGE(.BOTH.,#1466);
#1468=PRESENTATION_STYLE_ASSIGNMENT((#1467));
#1469=STYLED_ITEM('',(#1468),#1459);

#1470=(
BOUNDED_SURFACE()
B_SPLINE_SURFACE(1,2,((#244,#243,#239),(#1221,#1273,#1125)),.UNSPECIFIED.,.F.,.F.,.F.)
B_SPLINE_SURFACE_WITH_KNOTS((2,2),(3,3),(0.000,1.000),(0.000,1.000),.UNSPECIFIED.)
GEOMETRIC_REPRESENTATION_ITEM()
RATIONAL_B_SPLINE_SURFACE(((1.0000000000,0.7071067812,1.0000000000),(1.0000000000,0.7071067812,1.0000000000)))
REPRESENTATION_ITEM('')
SURFACE()
);

#1486=ORIENTED_EDGE('',*,*,#247,.F.);
#1493=ORIENTED_EDGE('',*,*,#1334,.F.);
#1501=ORIENTED_EDGE('',*,*,#1300,.F.);
#1506=ORIENTED_EDGE('',*,*,#1449,.F.);
#1507=EDGE_LOOP('',(#1486,#1493,#1501,#1506));
#1508=FACE_OUTER_BOUND('',#1507,.T.);
#1509=ADVANCED_FACE('',(#1508),#1470,.T.);
#1510=COLOUR_RGB('',0.39,0.39,0.39);
#1511=FILL_AREA_STYLE_COLOUR('',#1510);
#1512=FILL_AREA_STYLE('',(#1511));
#1513=SURFACE_STYLE_FILL_AREA(#1512);
#1514=SURFACE_STYLE_TRANSPARENT(0.00);
#1515=SURFACE_STYLE_RENDERING_WITH_PROPERTIES(.NORMAL_SHADING.,#1510,(#1514));
#1516=SURFACE_SIDE_STYLE('',(#1513, #1515));
#1517=SURFACE_STYLE_USAGE(.BOTH.,#1516);
#1518=PRESENTATION_STYLE_ASSIGNMENT((#1517));
#1519=STYLED_ITEM('',(#1518),#1509);

#1521=CARTESIAN_POINT('',(22.10000,-0.45000,1.10000));
#1523=CARTESIAN_POINT('',(21.00000,-0.45000,1.10000));
#1525=CARTESIAN_POINT('',(21.00000,-0.45000,0.00000));
#1520=(
BOUNDED_SURFACE()
B_SPLINE_SURFACE(2,1,((#1521,#1088),(#1523,#1087),(#1525,#1080)),.UNSPECIFIED.,.F.,.F.,.F.)
B_SPLINE_SURFACE_WITH_KNOTS((3,3),(2,2),(0.000,1.000),(0.000,1.000),.UNSPECIFIED.)
GEOMETRIC_REPRESENTATION_ITEM()
RATIONAL_B_SPLINE_SURFACE(((1.0000000000,1.0000000000),(0.7071067812,0.7071067812),(1.0000000000,1.0000000000)))
REPRESENTATION_ITEM('')
SURFACE()
);

#1529=(
BOUNDED_CURVE()
B_SPLINE_CURVE(1,(#1080,#1525),.UNSPECIFIED.,.F.,.F.)
B_SPLINE_CURVE_WITH_KNOTS((2,2),(0.000,1.000),.UNSPECIFIED.)
CURVE()
GEOMETRIC_REPRESENTATION_ITEM()
RATIONAL_B_SPLINE_CURVE((1.0000000000,1.0000000000))
REPRESENTATION_ITEM('')
);

#1533=VERTEX_POINT('',#1525);
#1534=EDGE_CURVE('',#1082,#1533,#1529,.T.);
#1535=ORIENTED_EDGE('',*,*,#1534,.T.);
#1536=(
BOUNDED_CURVE()
B_SPLINE_CURVE(2,(#1525,#1523,#1521),.UNSPECIFIED.,.F.,.F.)
B_SPLINE_CURVE_WITH_KNOTS((3,3),(0.000,1.000),.UNSPECIFIED.)
CURVE()
GEOMETRIC_REPRESENTATION_ITEM()
RATIONAL_B_SPLINE_CURVE((1.0000000000,0.7071067812,1.0000000000))
REPRESENTATION_ITEM('')
);

#1541=VERTEX_POINT('',#1521);
#1542=EDGE_CURVE('',#1533,#1541,#1536,.T.);
#1543=ORIENTED_EDGE('',*,*,#1542,.T.);
#1544=(
BOUNDED_CURVE()
B_SPLINE_CURVE(1,(#1521,#1088),.UNSPECIFIED.,.F.,.F.)
B_SPLINE_CURVE_WITH_KNOTS((2,2),(0.000,1.000),.UNSPECIFIED.)
CURVE()
GEOMETRIC_REPRESENTATION_ITEM()
RATIONAL_B_SPLINE_CURVE((1.0000000000,1.0000000000))
REPRESENTATION_ITEM('')
);

#1549=EDGE_CURVE('',#1541,#1090,#1544,.T.);
#1550=ORIENTED_EDGE('',*,*,#1549,.T.);
#1556=ORIENTED_EDGE('',*,*,#1091,.F.);
#1557=EDGE_LOOP('',(#1535,#1543,#1550,#1556));
#1558=FACE_OUTER_BOUND('',#1557,.T.);
#1559=ADVANCED_FACE('',(#1558),#1520,.T.);
#1560=COLOUR_RGB('',0.39,0.39,0.39);
#1561=FILL_AREA_STYLE_COLOUR('',#1560);
#1562=FILL_AREA_STYLE('',(#1561));
#1563=SURFACE_STYLE_FILL_AREA(#1562);
#1564=SURFACE_STYLE_TRANSPARENT(0.00);
#1565=SURFACE_STYLE_RENDERING_WITH_PROPERTIES(.NORMAL_SHADING.,#1560,(#1564));
#1566=SURFACE_SIDE_STYLE('',(#1563, #1565));
#1567=SURFACE_STYLE_USAGE(.BOTH.,#1566);
#1568=PRESENTATION_STYLE_ASSIGNMENT((#1567));
#1569=STYLED_ITEM('',(#1568),#1559);

#1571=CARTESIAN_POINT('',(23.20000,-0.45000,0.00000));
#1573=CARTESIAN_POINT('',(23.20000,-0.45000,1.10000));
#1570=(
BOUNDED_SURFACE()
B_SPLINE_SURFACE(2,1,((#1571,#1096),(#1573,#1095),(#1521,#1088)),.UNSPECIFIED.,.F.,.F.,.F.)
B_SPLINE_SURFACE_WITH_KNOTS((3,3),(2,2),(0.000,1.000),(0.000,1.000),.UNSPECIFIED.)
GEOMETRIC_REPRESENTATION_ITEM()
RATIONAL_B_SPLINE_SURFACE(((1.0000000000,1.0000000000),(0.7071067812,0.7071067812),(1.0000000000,1.0000000000)))
REPRESENTATION_ITEM('')
SURFACE()
);

#1585=ORIENTED_EDGE('',*,*,#1549,.F.);
#1586=(
BOUNDED_CURVE()
B_SPLINE_CURVE(2,(#1521,#1573,#1571),.UNSPECIFIED.,.F.,.F.)
B_SPLINE_CURVE_WITH_KNOTS((3,3),(0.000,1.000),.UNSPECIFIED.)
CURVE()
GEOMETRIC_REPRESENTATION_ITEM()
RATIONAL_B_SPLINE_CURVE((1.0000000000,0.7071067812,1.0000000000))
REPRESENTATION_ITEM('')
);

#1591=VERTEX_POINT('',#1571);
#1592=EDGE_CURVE('',#1541,#1591,#1586,.T.);
#1593=ORIENTED_EDGE('',*,*,#1592,.T.);
#1594=(
BOUNDED_CURVE()
B_SPLINE_CURVE(1,(#1571,#1096),.UNSPECIFIED.,.F.,.F.)
B_SPLINE_CURVE_WITH_KNOTS((2,2),(0.000,1.000),.UNSPECIFIED.)
CURVE()
GEOMETRIC_REPRESENTATION_ITEM()
RATIONAL_B_SPLINE_CURVE((1.0000000000,1.0000000000))
REPRESENTATION_ITEM('')
);

#1599=EDGE_CURVE('',#1591,#1098,#1594,.T.);
#1600=ORIENTED_EDGE('',*,*,#1599,.T.);
#1606=ORIENTED_EDGE('',*,*,#1099,.F.);
#1607=EDGE_LOOP('',(#1585,#1593,#1600,#1606));
#1608=FACE_OUTER_BOUND('',#1607,.T.);
#1609=ADVANCED_FACE('',(#1608),#1570,.T.);
#1610=COLOUR_RGB('',0.39,0.39,0.39);
#1611=FILL_AREA_STYLE_COLOUR('',#1610);
#1612=FILL_AREA_STYLE('',(#1611));
#1613=SURFACE_STYLE_FILL_AREA(#1612);
#1614=SURFACE_STYLE_TRANSPARENT(0.00);
#1615=SURFACE_STYLE_RENDERING_WITH_PROPERTIES(.NORMAL_SHADING.,#1610,(#1614));
#1616=SURFACE_SIDE_STYLE('',(#1613, #1615));
#1617=SURFACE_STYLE_USAGE(.BOTH.,#1616);
#1618=PRESENTATION_STYLE_ASSIGNMENT((#1617));
#1619=STYLED_ITEM('',(#1618),#1609);

#1621=CARTESIAN_POINT('',(22.10000,-0.45000,-1.10000));
#1623=CARTESIAN_POINT('',(23.20000,-0.45000,-1.10000));
#1620=(
BOUNDED_SURFACE()
B_SPLINE_SURFACE(2,1,((#1621,#1075),(#1623,#1103),(#1571,#1096)),.UNSPECIFIED.,.F.,.F.,.F.)
B_SPLINE_SURFACE_WITH_KNOTS((3,3),(2,2),(0.000,1.000),(0.000,1.000),.UNSPECIFIED.)
GEOMETRIC_REPRESENTATION_ITEM()
RATIONAL_B_SPLINE_SURFACE(((1.0000000000,1.0000000000),(0.7071067812,0.7071067812),(1.0000000000,1.0000000000)))
REPRESENTATION_ITEM('')
SURFACE()
);

#1635=ORIENTED_EDGE('',*,*,#1599,.F.);
#1636=(
BOUNDED_CURVE()
B_SPLINE_CURVE(2,(#1571,#1623,#1621),.UNSPECIFIED.,.F.,.F.)
B_SPLINE_CURVE_WITH_KNOTS((3,3),(0.000,1.000),.UNSPECIFIED.)
CURVE()
GEOMETRIC_REPRESENTATION_ITEM()
RATIONAL_B_SPLINE_CURVE((1.0000000000,0.7071067812,1.0000000000))
REPRESENTATION_ITEM('')
);

#1641=VERTEX_POINT('',#1621);
#1642=EDGE_CURVE('',#1591,#1641,#1636,.T.);
#1643=ORIENTED_EDGE('',*,*,#1642,.T.);
#1644=(
BOUNDED_CURVE()
B_SPLINE_CURVE(1,(#1621,#1075),.UNSPECIFIED.,.F.,.F.)
B_SPLINE_CURVE_WITH_KNOTS((2,2),(0.000,1.000),.UNSPECIFIED.)
CURVE()
GEOMETRIC_REPRESENTATION_ITEM()
RATIONAL_B_SPLINE_CURVE((1.0000000000,1.0000000000))
REPRESENTATION_ITEM('')
);

#1649=EDGE_CURVE('',#1641,#1076,#1644,.T.);
#1650=ORIENTED_EDGE('',*,*,#1649,.T.);
#1656=ORIENTED_EDGE('',*,*,#1105,.F.);
#1657=EDGE_LOOP('',(#1635,#1643,#1650,#1656));
#1658=FACE_OUTER_BOUND('',#1657,.T.);
#1659=ADVANCED_FACE('',(#1658),#1620,.T.);
#1660=COLOUR_RGB('',0.39,0.39,0.39);
#1661=FILL_AREA_STYLE_COLOUR('',#1660);
#1662=FILL_AREA_STYLE('',(#1661));
#1663=SURFACE_STYLE_FILL_AREA(#1662);
#1664=SURFACE_STYLE_TRANSPARENT(0.00);
#1665=SURFACE_STYLE_RENDERING_WITH_PROPERTIES(.NORMAL_SHADING.,#1660,(#1664));
#1666=SURFACE_SIDE_STYLE('',(#1663, #1665));
#1667=SURFACE_STYLE_USAGE(.BOTH.,#1666);
#1668=PRESENTATION_STYLE_ASSIGNMENT((#1667));
#1669=STYLED_ITEM('',(#1668),#1659);

#1673=CARTESIAN_POINT('',(21.00000,-0.45000,-1.10000));
#1670=(
BOUNDED_SURFACE()
B_SPLINE_SURFACE(2,1,((#1525,#1080),(#1673,#1079),(#1621,#1075)),.UNSPECIFIED.,.F.,.F.,.F.)
B_SPLINE_SURFACE_WITH_KNOTS((3,3),(2,2),(0.000,1.000),(0.000,1.000),.UNSPECIFIED.)
GEOMETRIC_REPRESENTATION_ITEM()
RATIONAL_B_SPLINE_SURFACE(((1.0000000000,1.0000000000),(0.7071067812,0.7071067812),(1.0000000000,1.0000000000)))
REPRESENTATION_ITEM('')
SURFACE()
);

#1685=ORIENTED_EDGE('',*,*,#1649,.F.);
#1686=(
BOUNDED_CURVE()
B_SPLINE_CURVE(2,(#1621,#1673,#1525),.UNSPECIFIED.,.F.,.F.)
B_SPLINE_CURVE_WITH_KNOTS((3,3),(0.000,1.000),.UNSPECIFIED.)
CURVE()
GEOMETRIC_REPRESENTATION_ITEM()
RATIONAL_B_SPLINE_CURVE((1.0000000000,0.7071067812,1.0000000000))
REPRESENTATION_ITEM('')
);

#1692=EDGE_CURVE('',#1641,#1533,#1686,.T.);
#1693=ORIENTED_EDGE('',*,*,#1692,.T.);
#1700=ORIENTED_EDGE('',*,*,#1534,.F.);
#1706=ORIENTED_EDGE('',*,*,#1083,.F.);
#1707=EDGE_LOOP('',(#1685,#1693,#1700,#1706));
#1708=FACE_OUTER_BOUND('',#1707,.T.);
#1709=ADVANCED_FACE('',(#1708),#1670,.T.);
#1710=COLOUR_RGB('',0.39,0.39,0.39);
#1711=FILL_AREA_STYLE_COLOUR('',#1710);
#1712=FILL_AREA_STYLE('',(#1711));
#1713=SURFACE_STYLE_FILL_AREA(#1712);
#1714=SURFACE_STYLE_TRANSPARENT(0.00);
#1715=SURFACE_STYLE_RENDERING_WITH_PROPERTIES(.NORMAL_SHADING.,#1710,(#1714));
#1716=SURFACE_SIDE_STYLE('',(#1713, #1715));
#1717=SURFACE_STYLE_USAGE(.BOTH.,#1716);
#1718=PRESENTATION_STYLE_ASSIGNMENT((#1717));
#1719=STYLED_ITEM('',(#1718),#1709);

#1720=(
BOUNDED_SURFACE()
B_SPLINE_SURFACE(1,2,((#294,#293,#286),(#1525,#1523,#1521)),.UNSPECIFIED.,.F.,.F.,.F.)
B_SPLINE_SURFACE_WITH_KNOTS((2,2),(3,3),(0.000,1.000),(0.000,1.000),.UNSPECIFIED.)
GEOMETRIC_REPRESENTATION_ITEM()
RATIONAL_B_SPLINE_SURFACE(((1.0000000000,0.7071067812,1.0000000000),(1.0000000000,0.7071067812,1.0000000000)))
REPRESENTATION_ITEM('')
SURFACE()
);

#1736=ORIENTED_EDGE('',*,*,#1542,.F.);
#1737=(
BOUNDED_CURVE()
B_SPLINE_CURVE(1,(#1525,#294),.UNSPECIFIED.,.F.,.F.)
B_SPLINE_CURVE_WITH_KNOTS((2,2),(0.000,1.000),.UNSPECIFIED.)
CURVE()
GEOMETRIC_REPRESENTATION_ITEM()
RATIONAL_B_SPLINE_CURVE((1.0000000000,1.0000000000))
REPRESENTATION_ITEM('')
);

#1742=EDGE_CURVE('',#1533,#296,#1737,.T.);
#1743=ORIENTED_EDGE('',*,*,#1742,.T.);
#1751=ORIENTED_EDGE('',*,*,#297,.F.);
#1752=(
BOUNDED_CURVE()
B_SPLINE_CURVE(1,(#286,#1521),.UNSPECIFIED.,.F.,.F.)
B_SPLINE_CURVE_WITH_KNOTS((2,2),(0.000,1.000),.UNSPECIFIED.)
CURVE()
GEOMETRIC_REPRESENTATION_ITEM()
RATIONAL_B_SPLINE_CURVE((1.0000000000,1.0000000000))
REPRESENTATION_ITEM('')
);

#1755=EDGE_CURVE('',#288,#1541,#1752,.T.);
#1756=ORIENTED_EDGE('',*,*,#1755,.T.);
#1757=EDGE_LOOP('',(#1736,#1743,#1751,#1756));
#1758=FACE_OUTER_BOUND('',#1757,.T.);
#1759=ADVANCED_FACE('',(#1758),#1720,.T.);
#1760=COLOUR_RGB('',0.39,0.39,0.39);
#1761=FILL_AREA_STYLE_COLOUR('',#1760);
#1762=FILL_AREA_STYLE('',(#1761));
#1763=SURFACE_STYLE_FILL_AREA(#1762);
#1764=SURFACE_STYLE_TRANSPARENT(0.00);
#1765=SURFACE_STYLE_RENDERING_WITH_PROPERTIES(.NORMAL_SHADING.,#1760,(#1764));
#1766=SURFACE_SIDE_STYLE('',(#1763, #1765));
#1767=SURFACE_STYLE_USAGE(.BOTH.,#1766);
#1768=PRESENTATION_STYLE_ASSIGNMENT((#1767));
#1769=STYLED_ITEM('',(#1768),#1759);

#1770=(
BOUNDED_SURFACE()
B_SPLINE_SURFACE(1,2,((#286,#285,#278),(#1521,#1573,#1571)),.UNSPECIFIED.,.F.,.F.,.F.)
B_SPLINE_SURFACE_WITH_KNOTS((2,2),(3,3),(0.000,1.000),(0.000,1.000),.UNSPECIFIED.)
GEOMETRIC_REPRESENTATION_ITEM()
RATIONAL_B_SPLINE_SURFACE(((1.0000000000,0.7071067812,1.0000000000),(1.0000000000,0.7071067812,1.0000000000)))
REPRESENTATION_ITEM('')
SURFACE()
);

#1786=ORIENTED_EDGE('',*,*,#1592,.F.);
#1793=ORIENTED_EDGE('',*,*,#1755,.F.);
#1801=ORIENTED_EDGE('',*,*,#289,.F.);
#1802=(
BOUNDED_CURVE()
B_SPLINE_CURVE(1,(#278,#1571),.UNSPECIFIED.,.F.,.F.)
B_SPLINE_CURVE_WITH_KNOTS((2,2),(0.000,1.000),.UNSPECIFIED.)
CURVE()
GEOMETRIC_REPRESENTATION_ITEM()
RATIONAL_B_SPLINE_CURVE((1.0000000000,1.0000000000))
REPRESENTATION_ITEM('')
);

#1805=EDGE_CURVE('',#280,#1591,#1802,.T.);
#1806=ORIENTED_EDGE('',*,*,#1805,.T.);
#1807=EDGE_LOOP('',(#1786,#1793,#1801,#1806));
#1808=FACE_OUTER_BOUND('',#1807,.T.);
#1809=ADVANCED_FACE('',(#1808),#1770,.T.);
#1810=COLOUR_RGB('',0.39,0.39,0.39);
#1811=FILL_AREA_STYLE_COLOUR('',#1810);
#1812=FILL_AREA_STYLE('',(#1811));
#1813=SURFACE_STYLE_FILL_AREA(#1812);
#1814=SURFACE_STYLE_TRANSPARENT(0.00);
#1815=SURFACE_STYLE_RENDERING_WITH_PROPERTIES(.NORMAL_SHADING.,#1810,(#1814));
#1816=SURFACE_SIDE_STYLE('',(#1813, #1815));
#1817=SURFACE_STYLE_USAGE(.BOTH.,#1816);
#1818=PRESENTATION_STYLE_ASSIGNMENT((#1817));
#1819=STYLED_ITEM('',(#1818),#1809);

#1820=(
BOUNDED_SURFACE()
B_SPLINE_SURFACE(1,2,((#278,#277,#273),(#1571,#1623,#1621)),.UNSPECIFIED.,.F.,.F.,.F.)
B_SPLINE_SURFACE_WITH_KNOTS((2,2),(3,3),(0.000,1.000),(0.000,1.000),.UNSPECIFIED.)
GEOMETRIC_REPRESENTATION_ITEM()
RATIONAL_B_SPLINE_SURFACE(((1.0000000000,0.7071067812,1.0000000000),(1.0000000000,0.7071067812,1.0000000000)))
REPRESENTATION_ITEM('')
SURFACE()
);

#1836=ORIENTED_EDGE('',*,*,#1642,.F.);
#1843=ORIENTED_EDGE('',*,*,#1805,.F.);
#1851=ORIENTED_EDGE('',*,*,#281,.F.);
#1852=(
BOUNDED_CURVE()
B_SPLINE_CURVE(1,(#273,#1621),.UNSPECIFIED.,.F.,.F.)
B_SPLINE_CURVE_WITH_KNOTS((2,2),(0.000,1.000),.UNSPECIFIED.)
CURVE()
GEOMETRIC_REPRESENTATION_ITEM()
RATIONAL_B_SPLINE_CURVE((1.0000000000,1.0000000000))
REPRESENTATION_ITEM('')
);

#1855=EDGE_CURVE('',#274,#1641,#1852,.T.);
#1856=ORIENTED_EDGE('',*,*,#1855,.T.);
#1857=EDGE_LOOP('',(#1836,#1843,#1851,#1856));
#1858=FACE_OUTER_BOUND('',#1857,.T.);
#1859=ADVANCED_FACE('',(#1858),#1820,.T.);
#1860=COLOUR_RGB('',0.39,0.39,0.39);
#1861=FILL_AREA_STYLE_COLOUR('',#1860);
#1862=FILL_AREA_STYLE('',(#1861));
#1863=SURFACE_STYLE_FILL_AREA(#1862);
#1864=SURFACE_STYLE_TRANSPARENT(0.00);
#1865=SURFACE_STYLE_RENDERING_WITH_PROPERTIES(.NORMAL_SHADING.,#1860,(#1864));
#1866=SURFACE_SIDE_STYLE('',(#1863, #1865));
#1867=SURFACE_STYLE_USAGE(.BOTH.,#1866);
#1868=PRESENTATION_STYLE_ASSIGNMENT((#1867));
#1869=STYLED_ITEM('',(#1868),#1859);

#1870=(
BOUNDED_SURFACE()
B_SPLINE_SURFACE(1,2,((#273,#301,#294),(#1621,#1673,#1525)),.UNSPECIFIED.,.F.,.F.,.F.)
B_SPLINE_SURFACE_WITH_KNOTS((2,2),(3,3),(0.000,1.000),(0.000,1.000),.UNSPECIFIED.)
GEOMETRIC_REPRESENTATION_ITEM()
RATIONAL_B_SPLINE_SURFACE(((1.0000000000,0.7071067812,1.0000000000),(1.0000000000,0.7071067812,1.0000000000)))
REPRESENTATION_ITEM('')
SURFACE()
);

#1886=ORIENTED_EDGE('',*,*,#1692,.F.);
#1893=ORIENTED_EDGE('',*,*,#1855,.F.);
#1901=ORIENTED_EDGE('',*,*,#303,.F.);
#1906=ORIENTED_EDGE('',*,*,#1742,.F.);
#1907=EDGE_LOOP('',(#1886,#1893,#1901,#1906));
#1908=FACE_OUTER_BOUND('',#1907,.T.);
#1909=ADVANCED_FACE('',(#1908),#1870,.T.);
#1910=COLOUR_RGB('',0.39,0.39,0.39);
#1911=FILL_AREA_STYLE_COLOUR('',#1910);
#1912=FILL_AREA_STYLE('',(#1911));
#1913=SURFACE_STYLE_FILL_AREA(#1912);
#1914=SURFACE_STYLE_TRANSPARENT(0.00);
#1915=SURFACE_STYLE_RENDERING_WITH_PROPERTIES(.NORMAL_SHADING.,#1910,(#1914));
#1916=SURFACE_SIDE_STYLE('',(#1913, #1915));
#1917=SURFACE_STYLE_USAGE(.BOTH.,#1916);
#1918=PRESENTATION_STYLE_ASSIGNMENT((#1917));
#1919=STYLED_ITEM('',(#1918),#1909);

#1920=CLOSED_SHELL('',(#307,#357,#407,#457,#507,#557,#607,#657,#707,#791,#841,#891,#941,#991,#1109,#1159,#1209,#1259,#1309,#1359,#1409,#1459,#1509,#1559,#1609,#1659,#1709,#1759,#1809,#1859,#1909));
#1921=MANIFOLD_SOLID_BREP('brep',#1920);
#1922=ADVANCED_BREP_SHAPE_REPRESENTATION('',(#1921,#170),#168);
#1923=SHAPE_REPRESENTATION_RELATIONSHIP($,$,#169,#1922);

ENDSEC;

END-ISO-10303-21;
